<?xml version="1.0" encoding="utf-8"?>
<!-- Generator: Adobe Illustrator 19.0.0, SVG Export Plug-In . SVG Version: 6.00 Build 0)  -->
<svg version="1.1" id="Layer_1" xmlns="http://www.w3.org/2000/svg" xmlns:xlink="http://www.w3.org/1999/xlink" x="0px" y="0px"
	 viewBox="0 0 21.9 14.9" style="enable-background:new 0 0 21.9 14.9;" xml:space="preserve">
<g>
	<defs>
        <clipPath id="svgPath">
	<polygon points="14.1,1.3 14.1,1.3 14.1,1.3 	"/>
	<path d="M0.7,5.9C0.8,5.8,0.9,5.7,1,5.6c0.2-0.1,0.4-0.3,0.6-0.4C1.8,5.1,2,5,2.1,4.9c0.2-0.1,0.3-0.2,0.5-0.3
		C2.8,4.5,3,4.4,3.1,4.3C3.3,4.2,3.5,4.1,3.7,4C3.8,3.9,4,3.8,4.1,3.7c0.2-0.1,0.4-0.2,0.6-0.3c0.2-0.1,0.3-0.2,0.5-0.2
		C5.4,3.1,5.5,3.1,5.7,3C6,2.9,6.3,2.7,6.6,2.6c0.3-0.1,0.6-0.2,0.9-0.4C7.7,2.1,7.9,2,8.1,1.9c0.2-0.1,0.4-0.2,0.6-0.3
		C9,1.6,9.2,1.5,9.4,1.5c0,0,0,0,0,0c0,0,0,0,0,0c0,0,0,0-0.1,0c-0.1,0-0.1,0.1-0.2,0.1C8.9,1.5,8.7,1.6,8.6,1.7
		C8.3,1.8,8,1.9,7.7,2C7.4,2.2,7.2,2.3,6.9,2.4c-0.1,0-0.1,0.1-0.2,0.1C6.5,2.5,6.3,2.6,6.1,2.7C6,2.8,5.9,2.8,5.8,2.9
		C5.6,2.9,5.4,3,5.2,3.1c0,0-0.1,0-0.1,0C4.9,3.2,4.8,3.3,4.7,3.3C4.5,3.4,4.3,3.5,4.1,3.6C3.9,3.7,3.8,3.8,3.6,3.9
		C3.5,3.9,3.5,4,3.4,4C3.3,4,3.2,4.1,3.1,4.1C3,4.2,2.9,4.2,2.8,4.3C2.7,4.4,2.5,4.5,2.4,4.6C2.2,4.7,2,4.8,1.9,4.9
		C1.6,5.1,1.4,5.2,1.2,5.4C1.1,5.4,1,5.5,0.9,5.5C0.8,5.6,0.7,5.7,0.7,5.9c0-0.1-0.1,0-0.1,0C0.6,5.9,0.6,5.9,0.7,5.9z"/>
	<path d="M1.4,5.1C1.5,5,1.7,4.9,1.9,4.7c0.2-0.1,0.4-0.3,0.6-0.4c0.1-0.1,0.2-0.2,0.4-0.2C3.1,4,3.3,3.9,3.6,3.7
		c0.2-0.1,0.3-0.2,0.5-0.3c0.2-0.1,0.4-0.2,0.6-0.3c0.1,0,0.2-0.1,0.3-0.1C5.1,3,5.3,2.9,5.5,2.8c0,0,0,0,0,0c0,0,0,0,0,0
		c-0.1,0-0.2,0.1-0.3,0.1C5.1,2.9,4.9,3,4.7,3.1C4.5,3.2,4.3,3.3,4.1,3.4C3.9,3.5,3.7,3.6,3.5,3.7c0,0-0.1,0-0.1,0
		c-0.1,0-0.2,0.1-0.2,0.1C3.1,4,3,4,2.9,4C2.8,4.1,2.6,4.2,2.4,4.3C2.2,4.4,2.1,4.6,1.9,4.7C1.7,4.8,1.5,4.9,1.4,5.1
		c-0.1,0-0.1,0-0.1,0.1C1.3,5.1,1.3,5.1,1.4,5.1z"/>
	<path d="M2,5.1C2,5.1,2,5.1,2,5.1C1.8,5.2,1.7,5.3,1.6,5.4c-0.1,0-0.1,0.1-0.2,0.1c0,0-0.1,0.1-0.1,0.1c0,0,0,0,0,0
		c0.1,0,0.2-0.1,0.3-0.2c0,0,0.1,0,0.1-0.1C1.8,5.3,1.9,5.2,2,5.1c0.1,0,0.2-0.1,0.3-0.1c0,0,0.1-0.1,0.1-0.1c0,0,0,0,0,0
		c0.1-0.1,0.1-0.1,0.2-0.1c0,0,0.1,0,0.1-0.1c0,0-0.1,0-0.1,0c0,0,0,0,0,0c-0.1,0-0.2,0.1-0.2,0.1C2.3,4.9,2.2,4.9,2.2,5
		c0,0,0,0,0,0.1C2.1,5,2.1,5.1,2,5.1C2,5.1,2,5.1,2,5.1z"/>
	<path d="M4.2,3.9c0.1,0,0.1,0,0.1-0.1c0.1-0.1,0.3-0.1,0.4-0.2c0,0,0,0,0,0c-0.1,0-0.2,0-0.2,0.1c-0.1,0-0.1,0.1-0.2,0.1
		C4.2,3.8,4.1,3.9,4,4C3.8,4.1,3.5,4.2,3.3,4.3c-0.1,0-0.1,0.1-0.2,0.1c0,0,0,0,0,0.1c0.1,0,0.1,0,0.2-0.1c0,0,0.1,0,0.1-0.1
		c0,0,0,0,0,0c0.1,0,0.1,0,0.1-0.1c0,0,0,0,0.1-0.1c0,0,0,0,0.1,0c0,0,0,0,0,0c0,0,0.1-0.1,0.1-0.1c0,0,0,0,0,0C4,4,4,4,4.1,4
		C4.1,4,4.1,4,4.2,3.9L4.2,3.9C4.1,3.9,4.1,3.9,4.2,3.9C4.1,3.9,4.1,3.9,4.2,3.9C4.1,3.9,4.2,3.9,4.2,3.9z"/>
	<path d="M14.3,1.2C14.3,1.2,14.3,1.2,14.3,1.2c0.1,0,0.1,0,0.2,0c0,0,0.1,0,0.1,0c0,0,0.1,0,0.1,0c0,0,0,0,0.1-0.1c0,0,0,0,0.1,0
		C14.6,1,14.3,1.1,14.3,1.2z"/>
	<path d="M2.8,4.7c0-0.1,0.1-0.1,0.2-0.1c0,0-0.1,0-0.1,0C2.9,4.6,2.8,4.6,2.8,4.7C2.8,4.6,2.8,4.7,2.8,4.7z"/>
	<path d="M7.1,2.1C7,2.1,6.8,2.2,6.7,2.2c0,0,0,0,0,0C6.8,2.2,7,2.1,7.1,2.1z"/>
	<path d="M5.6,2.7C5.7,2.7,5.8,2.6,6,2.6C5.8,2.6,5.6,2.7,5.6,2.7z"/>
	<path d="M7.5,1.9C7.5,1.9,7.5,1.9,7.5,1.9C7.4,2,7.3,2,7.3,2c0,0,0,0,0,0C7.3,2,7.4,2,7.5,1.9z"/>
	<path d="M15,0.9c0.1,0,0.1,0,0.1-0.1C15,0.8,15,0.9,15,0.9z"/>
	<path d="M14.8,0.9c0,0,0.1,0,0.1,0C14.9,0.9,14.9,0.9,14.8,0.9z"/>
	<path d="M3.1,4.5C3.1,4.5,3.1,4.5,3.1,4.5C3.1,4.5,3,4.5,3.1,4.5C3,4.5,3,4.5,3.1,4.5z"/>
	<path d="M12.8,1.6c0.1,0,0.1,0,0.2-0.1c0,0,0,0,0,0C13,1.6,12.9,1.6,12.8,1.6C12.8,1.6,12.8,1.6,12.8,1.6z"/>
	<path d="M7.6,1.9C7.6,1.9,7.6,1.9,7.6,1.9c0,0-0.1,0-0.1,0c0,0,0,0,0,0C7.6,1.9,7.6,1.9,7.6,1.9z"/>
	<path d="M6.6,2.3C6.6,2.3,6.6,2.3,6.6,2.3c0,0-0.1,0-0.1,0c0,0,0,0,0,0C6.5,2.3,6.6,2.3,6.6,2.3z"/>
	<path d="M16.7,2.1C16.7,2.1,16.8,2.1,16.7,2.1C16.8,2,16.7,2.1,16.7,2.1C16.7,2.1,16.7,2.1,16.7,2.1z"/>
	<path d="M6.2,2.4C6.2,2.4,6.2,2.4,6.2,2.4C6.2,2.5,6.2,2.5,6.2,2.4z"/>
	<path d="M18.4,5.3C18.4,5.3,18.4,5.3,18.4,5.3C18.5,5.3,18.5,5.3,18.4,5.3C18.4,5.3,18.4,5.3,18.4,5.3C18.4,5.3,18.4,5.3,18.4,5.3z
		"/>
	<path d="M11.1,1.6c0,0,0.1,0,0.1,0c0,0,0,0,0,0C11.1,1.6,11.1,1.6,11.1,1.6C11.1,1.6,11.1,1.6,11.1,1.6z"/>
	<path d="M17.7,5.1C17.7,5.1,17.7,5.1,17.7,5.1C17.7,5.1,17.7,5.1,17.7,5.1z"/>
	<path d="M19.5,4.7C19.5,4.7,19.5,4.7,19.5,4.7C19.5,4.7,19.5,4.7,19.5,4.7C19.5,4.7,19.5,4.7,19.5,4.7C19.5,4.7,19.5,4.7,19.5,4.7z
		"/>
	<path d="M13.7,0.2C13.7,0.2,13.7,0.2,13.7,0.2C13.6,0.2,13.6,0.2,13.7,0.2C13.6,0.2,13.6,0.3,13.7,0.2C13.6,0.2,13.6,0.2,13.7,0.2z
		"/>
	<path d="M14.1,1.3C14.1,1.3,14.1,1.3,14.1,1.3C14.1,1.3,14.1,1.3,14.1,1.3z"/>
	<polygon points="14.1,1.3 14.1,1.3 14.1,1.3 	"/>
	<path d="M16.1,2.5C16.1,2.5,16.1,2.5,16.1,2.5C16.1,2.5,16.1,2.5,16.1,2.5C16.1,2.5,16.1,2.5,16.1,2.5C16.1,2.5,16.1,2.5,16.1,2.5z
		"/>
	<path d="M1.8,8C1.8,8,1.8,8,1.8,8C1.8,8,1.8,8,1.8,8C1.8,8,1.8,8,1.8,8z"/>
	<path d="M4.2,4C4.1,4,4.1,4,4.2,4C4.1,4,4.1,4,4.2,4C4.1,4,4.1,4,4.2,4z"/>
	<path d="M6.1,2.5C6.1,2.5,6.1,2.5,6.1,2.5C6.1,2.5,6.1,2.5,6.1,2.5C6.1,2.5,6.1,2.5,6.1,2.5C6.1,2.5,6.1,2.5,6.1,2.5z"/>
	<path d="M13.7,0.2C13.7,0.2,13.7,0.2,13.7,0.2C13.7,0.2,13.7,0.3,13.7,0.2C13.7,0.2,13.7,0.2,13.7,0.2z"/>
	<path d="M20.3,7c0,0,0.1,0,0.1,0c0,0,0.1,0,0.1,0c0,0,0.1,0,0.1,0c0.1,0,0.1,0,0.1-0.1c-0.1,0-0.1-0.1-0.1-0.1c0,0-0.1,0-0.1,0
		c-0.1,0-0.1,0.1-0.2,0c-0.1,0-0.2,0-0.2,0.1c0,0-0.1,0-0.1,0c-0.2,0-0.3,0.1-0.5,0.1c0,0,0-0.1,0-0.1c0.1,0,0.1-0.1,0.2-0.1
		c0,0,0.1,0,0.1,0c0.1,0,0.2-0.1,0.2-0.1c0.1,0,0.2,0,0.3-0.1c0.1,0,0.1,0,0.1-0.1c-0.1,0-0.1-0.1-0.2,0c0,0-0.1,0-0.1,0
		c-0.1,0-0.1,0-0.2,0c-0.1,0-0.1,0.1-0.2,0.1c0.1-0.1,0.2-0.1,0.3-0.2c0,0-0.1,0-0.1,0c-0.2,0-0.3,0.1-0.5,0.1
		c-0.2,0-0.4,0.1-0.7,0.1c-0.1,0-0.2,0-0.4,0c0,0-0.1,0-0.1-0.1c0.1,0,0.1-0.1,0.2-0.1c0,0,0.1,0,0.1,0c0.1,0,0.2,0,0.2-0.1
		c0,0,0,0-0.1,0c0,0,0,0,0,0c0.1,0,0.1,0,0.2-0.1c0,0,0,0,0,0c0,0,0,0,0,0c0.1,0,0.2,0,0.2-0.1c0.1,0,0.2-0.1,0.2-0.2
		c0,0,0.1,0,0.2,0c0.1,0,0.2,0,0.3,0c-0.2,0-0.3,0-0.5,0c0-0.1-0.1-0.1-0.1-0.2c0,0,0-0.1,0-0.1c-0.1,0.1-0.3,0.1-0.4,0c0,0,0,0,0,0
		c0,0,0,0,0,0c0,0-0.1-0.1-0.2-0.1c-0.1,0.1-0.2,0.1-0.3,0.1c0,0,0.1-0.1,0-0.1c-0.1,0-0.2,0-0.3,0.1c0,0,0,0,0,0
		c0.1-0.1,0.2-0.1,0.4-0.2c0,0,0,0,0,0c-0.1,0-0.2,0-0.4,0.1c0,0,0,0-0.1,0c-0.1,0-0.2,0-0.3,0.1c0,0.1-0.1,0.2-0.3,0.2
		c0,0,0,0-0.1,0c0,0,0.1-0.1,0.1-0.1c0,0-0.1-0.1-0.1,0c0,0.1,0,0.1-0.1,0.2c0,0,0,0,0,0c-0.1-0.1-0.1,0-0.1,0
		c0,0.1-0.1,0.1-0.1,0.1c0,0,0,0,0,0c0,0,0-0.1,0.1-0.1c-0.1,0-0.1,0-0.1,0.1c0,0,0,0,0,0c-0.1,0.1-0.1,0-0.2,0
		c-0.1,0-0.1,0.1-0.2,0.1c0,0,0-0.1,0.1-0.1c0,0,0,0.1,0,0.1c0,0,0,0,0-0.1C16.9,6,17,6,17.2,5.9c0.1,0,0.2,0,0.3-0.1c0,0,0,0,0,0
		c0.1,0,0.1,0,0.1-0.1c0,0,0,0,0,0c0.1,0,0.1,0,0.2-0.1c0,0,0,0,0-0.1c0,0,0,0,0,0c0.1,0,0.2-0.1,0.3-0.1c0,0,0,0,0,0
		c-0.1,0-0.3,0.1-0.4,0.2c0,0,0,0,0,0.1c0,0,0,0,0.1-0.1c0,0,0,0,0,0.1c0,0,0.1,0,0.1-0.1c0-0.1,0.1-0.1,0.1-0.1
		c0.1,0,0.2-0.1,0.3-0.1c0,0,0,0,0,0c0,0-0.1,0-0.1,0c0,0-0.1,0-0.1,0c0,0,0,0,0.1-0.1c0,0,0,0,0.1,0c0,0,0,0,0,0c0,0,0,0-0.1,0
		c0,0,0,0,0,0c0.1,0,0.2-0.1,0.3-0.1c0.2-0.1,0.3-0.1,0.5-0.2c0.1,0,0.2-0.1,0.3-0.2c0,0,0,0-0.1,0c0,0,0.1,0,0.1-0.1
		c-0.1,0-0.1,0-0.1,0c-0.2,0.1-0.3,0.1-0.5,0.2c-0.1,0-0.2,0.1-0.3,0.1c-0.1,0-0.3,0.1-0.4,0.1c0,0-0.1,0-0.1,0c0,0-0.1,0-0.1,0.1
		c0,0,0,0,0,0c-0.1,0-0.1,0.1-0.2,0.1c0,0,0,0,0,0c0,0,0.1-0.1,0.1-0.1c-0.1,0-0.2,0-0.3,0c-0.1,0-0.1,0-0.2,0.1c0,0,0,0,0,0
		c-0.1,0-0.1,0.1-0.2,0.1c-0.1,0.1-0.3,0.2-0.4,0.2c0,0,0-0.1,0-0.1c0.1,0,0.2-0.1,0.2-0.1c0,0,0,0,0,0c0,0,0.1,0,0.1-0.1
		c0,0,0,0,0,0c0.1,0,0.2-0.1,0.3-0.1c0,0,0,0,0,0c0.1,0,0.2-0.1,0.3-0.1c0.1,0,0.2-0.1,0.3-0.1c0.1,0,0.2-0.1,0.3-0.1
		c0.1,0,0.2-0.1,0.3-0.1c0.1,0,0.2,0,0.3-0.1c0,0,0,0,0,0c0,0,0.1,0,0.1-0.1c0,0,0.1,0,0.1,0c0,0,0.1,0,0.1,0c0,0,0,0,0,0
		c0,0,0.1,0,0.1-0.1c0,0,0.1,0,0.1,0c0.1,0,0.1,0,0.2-0.1c0.1,0,0.1,0,0.2-0.1c0,0,0,0,0,0c-0.1,0-0.2,0-0.3,0c0,0-0.1,0-0.1,0
		c0,0-0.1,0-0.1,0c0,0,0,0-0.1,0c0,0,0,0,0,0c0,0,0,0,0,0c0,0,0,0,0.1-0.1c-0.1,0-0.1,0-0.2,0c0,0,0,0,0,0c0,0,0-0.1,0-0.1
		c0,0,0,0-0.1,0c0,0,0,0-0.1,0c-0.1,0-0.1,0.1-0.2,0.1c-0.1,0.1-0.2,0.1-0.4,0.2c-0.1,0-0.1,0.1-0.2,0c0,0,0,0,0,0
		c0,0.1-0.1,0.1-0.1,0.1c0,0,0,0,0.1-0.1c-0.1,0-0.1,0-0.2,0.1c0,0,0,0,0,0.1c-0.1,0-0.2,0-0.3,0c-0.2,0.1-0.4,0.2-0.6,0.3
		c0,0,0,0-0.1,0c0-0.1,0.2-0.1,0.2-0.2c-0.2,0.1-0.3,0.1-0.4,0.2c0.1-0.1,0.1-0.1,0.1-0.1c0,0,0,0,0,0.1c-0.1,0-0.1,0-0.1,0
		c0.1,0,0.1-0.1,0.2-0.1c0,0,0.1,0,0.1,0c0.1-0.1,0.1-0.1,0.1-0.1c0,0,0-0.1,0-0.1c0.1,0,0.1,0,0,0.2c0.1-0.1,0.2,0,0.2-0.1
		c0,0,0,0,0.1,0c0,0,0.1,0,0.1-0.1l0,0c0,0,0.1,0,0.1,0c0-0.1,0-0.1,0.1-0.1c-0.1,0-0.1,0-0.1,0c-0.1,0-0.1,0-0.2,0.1c0,0,0,0,0,0
		c0,0,0.1,0,0.1,0c0,0,0.1-0.1,0.1-0.1c0,0.1,0.1,0.1,0.1,0c0.1,0,0.1-0.1,0.2-0.1c0,0,0,0,0,0c0,0,0,0,0,0.1c0,0,0,0,0.1,0
		c0,0-0.1,0.1-0.1,0.1c0,0,0,0,0.1,0c0.2-0.1,0.4-0.1,0.5-0.2C18.2,4,18.3,4,18.4,4c0.1,0,0.1,0,0.2-0.1c0,0-0.1,0-0.1,0
		c0,0,0,0,0-0.1c-0.1,0-0.1,0-0.2,0c0,0,0-0.1,0.1-0.1c-0.1,0-0.1,0-0.2,0c-0.1,0-0.2,0.1-0.3,0.1c-0.1,0-0.2,0.1-0.3,0.1
		c0,0-0.1,0.1-0.1,0.1c-0.1,0-0.2,0-0.2,0.1c-0.1,0-0.1,0.1-0.2,0.1c-0.1,0-0.2,0.1-0.3,0.1c-0.1,0-0.2,0-0.2,0.1
		c-0.2,0.1-0.4,0.2-0.5,0.2c-0.1,0-0.1,0-0.2,0.1c0,0,0,0-0.1,0c-0.1,0-0.1,0-0.1-0.1c0,0,0,0,0,0c0,0-0.1,0-0.1,0c0,0,0,0,0,0.1
		c0,0,0,0-0.1,0c-0.1,0-0.1,0.1-0.2,0.1c0,0-0.1,0-0.1,0c0,0,0,0-0.1,0c0.1-0.1,0.2-0.1,0.3-0.1c0,0,0,0,0,0c0,0,0,0,0,0
		c0.1,0,0.2,0,0.2-0.1c0,0,0,0,0,0c0.1,0,0.1-0.1,0.2-0.1c0.1,0,0.1-0.1,0.2-0.1c0,0,0-0.1,0-0.1c-0.2,0.1-0.4,0.2-0.5,0.2
		c0.1-0.1,0.3-0.2,0.4-0.2c0,0,0,0,0-0.1c0.1,0,0.2-0.1,0.4-0.1c0,0,0.1-0.1,0.1-0.1c0.1,0,0.2-0.1,0.2-0.1c0,0.1,0.1,0,0.1,0
		c0,0,0-0.1-0.1-0.1c-0.2,0.1-0.3,0.1-0.5,0.2C16.1,3.9,16.1,4,16,4c-0.1,0-0.2,0.1-0.3,0.1c-0.2,0.1-0.3,0.1-0.5,0.2
		c-0.1,0-0.1,0-0.2,0.1c0,0,0.1,0,0.1-0.1c0.1,0,0.2-0.1,0.2-0.1c0,0,0,0,0.1,0c0,0,0-0.1,0.1,0c0,0,0.1,0,0.1,0c0,0,0,0,0,0
		c0,0,0.1,0,0.1,0c0,0,0.1-0.1,0.1-0.1c0.1-0.1,0.2-0.1,0.3-0.2c0.1,0,0.2-0.1,0.2-0.1c0,0,0.1,0,0-0.1c0,0,0.1,0,0.1,0
		c0,0,0,0,0.1,0c0,0,0,0,0.1,0c0.1,0,0.2-0.1,0.2-0.1c0.1,0,0.2-0.1,0.4-0.2c0,0,0,0,0,0c0,0,0,0,0,0c0.1,0,0.1-0.1,0.2-0.1
		c0,0,0,0,0-0.1c-0.1,0-0.1,0.1-0.2,0.1c-0.1,0-0.1,0-0.1,0.1c-0.1,0-0.1,0-0.2,0.1c0,0,0,0,0,0c0.1-0.1,0.3-0.1,0.4-0.2
		c0,0,0,0,0,0c-0.1,0.1-0.3,0.1-0.4,0.2c0.1,0,0.1-0.1,0.2-0.1c0,0-0.1,0-0.1,0c-0.1,0-0.2,0.1-0.3,0.1c0,0,0,0,0,0
		c0,0.1-0.1,0-0.1,0.1c0,0,0,0,0.1,0c0,0,0,0,0,0c0,0,0,0,0,0c-0.1,0-0.2,0-0.3,0c0,0,0,0,0,0c0,0,0,0,0,0c-0.1,0-0.1,0.1-0.2,0.1
		c0,0,0,0,0,0c0.2-0.1,0.4-0.2,0.7-0.4c0,0,0.1,0,0.1-0.1c0,0,0,0,0,0c0.1,0,0.1-0.1,0.1-0.1c0,0-0.1,0-0.1,0c0,0,0,0,0,0
		c0.3-0.1,0.5-0.2,0.8-0.4c-0.1,0-0.2,0.1-0.3,0.1c0,0,0,0,0-0.1c-0.1,0-0.1,0-0.1,0c0,0,0,0,0,0c0,0-0.1,0-0.1,0
		c-0.1,0-0.2,0.1-0.3,0.1c-0.1,0-0.1,0.1-0.2,0.1c0,0,0,0-0.1,0c0,0,0,0,0-0.1c0,0,0,0,0,0c0,0,0,0,0,0c0.1,0,0.1-0.1,0.2-0.1
		c0.1,0,0.1-0.1,0.2-0.1c0,0,0,0,0,0c0,0-0.1,0-0.1,0c0,0-0.1,0.1-0.1,0c0,0,0.1-0.1,0.1-0.1c0,0,0,0,0,0c0,0,0,0-0.1,0
		c-0.1,0-0.2,0.1-0.3,0.1c-0.1,0-0.2,0.1-0.3,0.2c0,0-0.1,0-0.2,0.1c-0.2,0.1-0.3,0.2-0.5,0.3c-0.1,0-0.1,0.1-0.2,0.1
		c0.2-0.1,0.4-0.2,0.5-0.3c0,0,0,0,0,0c-0.1,0-0.2,0.1-0.3,0.1c-0.1,0.1-0.3,0.1-0.4,0.2c-0.1,0-0.1,0-0.2,0c0,0,0,0,0,0
		c0.1,0,0.1-0.1,0.2-0.1c0,0,0,0,0-0.1C15.1,2.9,15,3,14.8,3c0,0,0-0.1,0.1-0.1c0.1-0.1,0.3-0.1,0.4-0.2c0.2-0.1,0.4-0.1,0.5-0.2
		c0,0,0.1,0,0.1,0c0,0,0,0,0,0c-0.2,0.1-0.4,0.1-0.5,0.1c0.1,0,0.1-0.1,0.2-0.1c0.1,0,0.3-0.1,0.4-0.1c0,0,0.1,0,0.1-0.1
		c0,0,0,0,0.1,0c0.1,0,0.3-0.1,0.4-0.1c0,0,0.1,0,0.1-0.1c0,0-0.1,0-0.1,0c0-0.1,0-0.1,0.1-0.1c0,0,0.1,0,0.1,0
		c0.1,0,0.1-0.1,0.2-0.1c0,0,0,0,0,0c-0.1,0-0.2,0-0.2,0.1c-0.1,0-0.1,0-0.2,0c0,0,0,0,0,0C16.4,2,16.2,2,16.1,2c-0.1,0-0.1,0-0.2,0
		c0,0-0.1,0-0.1,0c0,0-0.1,0-0.1,0c0,0,0.1,0,0.1,0c0.1,0,0.2-0.1,0.4-0.1c0,0,0,0,0,0c0,0,0,0,0.1,0c0,0,0.1,0,0.2,0
		c0.1,0,0.1,0,0.2-0.1c0,0,0,0,0,0c-0.1,0-0.3,0.1-0.4,0.1c0-0.1,0.1-0.1,0.2-0.1c0.1,0,0.1-0.1,0.2-0.1c0.1,0,0.1-0.1,0.2-0.1
		c-0.1,0-0.1,0-0.2,0c0,0,0,0,0.1,0c0,0,0,0,0,0c0,0,0.1,0,0.1-0.1c0,0,0.1,0,0.1,0c0,0,0,0,0-0.1c0,0,0,0,0,0c-0.1,0-0.2,0-0.3,0.1
		c-0.1,0-0.3,0.1-0.4,0.1c-0.1,0-0.3,0.1-0.4,0.1c-0.2,0.1-0.4,0.1-0.6,0.2c-0.1,0-0.2,0-0.3,0.1c-0.1,0-0.2,0-0.3,0.1c0,0,0,0,0,0
		c0,0,0,0,0,0c0.2-0.1,0.4-0.1,0.6-0.2c0.1,0,0.2,0,0.2-0.1c0,0,0,0,0.1-0.1c0,0,0,0,0,0c0.1,0,0.2-0.1,0.3-0.1
		c0.1,0,0.3-0.1,0.4-0.1c0,0,0,0,0.1,0c0,0,0.1,0,0.1,0c0,0,0,0,0,0c-0.1,0-0.2,0.1-0.3,0.1c-0.2,0.1-0.4,0.1-0.6,0.2
		c0,0-0.1,0-0.1,0c-0.1,0-0.1,0-0.1,0c0,0,0,0,0,0c0.1,0,0.1,0,0.2-0.1c0.1,0,0.1-0.1,0.2-0.1c0,0,0,0,0,0c0,0,0.1,0,0.1,0
		c0.1,0,0.1,0,0.2-0.1c0,0,0,0,0,0c0,0-0.1,0-0.1,0c0,0-0.1,0-0.1,0c0.1,0,0.1-0.1,0.2-0.1c0,0,0,0-0.1,0c-0.1,0-0.3,0.1-0.4,0.1
		c-0.1,0-0.3,0.1-0.4,0.1c-0.2,0.1-0.5,0.2-0.7,0.2c0,0-0.1,0-0.1,0c0,0,0.1,0,0.1,0c0.1,0,0.1-0.1,0.2-0.1c0,0,0,0,0,0c0,0,0,0,0,0
		c0.1,0,0.2-0.1,0.4-0.1c0.2-0.1,0.4-0.1,0.7-0.2c0,0,0,0,0.1,0c0,0,0,0,0,0c0,0-0.1,0-0.1,0c-0.1,0-0.2,0.1-0.3,0.1
		c0,0-0.1,0-0.1,0c-0.1,0-0.2,0.1-0.4,0.1c-0.2,0.1-0.5,0.1-0.7,0.2c-0.1,0-0.1,0-0.2,0c0,0,0,0,0-0.1c0,0,0,0,0.1,0
		c0,0,0.1,0,0.1-0.1c0,0,0.1,0,0.1,0c0,0,0,0,0,0c0,0-0.1,0-0.1,0c0,0-0.1,0-0.1,0c-0.1,0-0.1,0.1-0.2,0.1c0,0-0.1,0-0.1,0
		c0,0,0,0,0,0c-0.1,0-0.1,0-0.2,0.1c0,0,0,0,0,0c0,0-0.1,0-0.1,0c-0.2,0.1-0.3,0.1-0.5,0.2c-0.1,0-0.2,0.1-0.3,0.1
		c-0.1,0-0.1,0-0.2,0c-0.1,0-0.3,0.1-0.4,0.1c0,0,0,0,0,0c0.2-0.1,0.3-0.1,0.5-0.2c0,0,0,0-0.1,0c0,0,0-0.1,0-0.1c0,0,0,0-0.1,0
		c0,0,0,0,0.1,0c0.1,0,0.2-0.1,0.3-0.1c0,0,0,0,0,0c0.1,0,0.1,0,0.2-0.1c0,0,0.1,0,0.1-0.1c0,0,0,0,0,0c-0.1,0-0.1,0-0.2,0.1
		c0,0,0,0,0,0c0.1,0,0.1-0.1,0.2-0.1c0,0,0,0-0.1,0c0,0,0,0,0,0c0.1,0,0.1-0.1,0.2,0c0,0,0.1,0,0.1,0c0.1,0,0.1-0.1,0.2-0.1
		c0,0,0.1,0,0.1,0c0,0,0,0,0,0c0,0,0,0,0,0c0.1,0,0.1-0.1,0.2-0.1c0,0,0.1,0,0-0.1c0,0,0,0,0,0c0,0,0,0,0,0c0.1-0.1,0.3-0.1,0.4-0.2
		c0.1,0,0.1-0.1,0.2-0.1c0,0,0.1,0,0.1-0.1c0.1,0,0.2-0.1,0.3-0.1c0.1,0,0.2-0.1,0.2-0.1c0,0,0.1,0,0.1,0c0,0,0,0,0,0c0,0,0,0,0.1,0
		c0,0,0.1,0,0.1,0c0,0,0.1-0.1,0.1-0.1c0,0,0.1,0,0.1-0.1c0,0,0,0,0-0.1c-0.1,0-0.1,0.1-0.2,0.1c0,0,0,0,0,0c-0.1,0-0.2,0.1-0.2,0.1
		c0,0,0,0,0,0c0,0-0.1,0-0.1,0c-0.1,0-0.1,0-0.1,0c0,0-0.1,0.1-0.1,0c0,0,0,0,0,0c0,0,0,0,0,0c0,0,0,0,0,0c0,0,0,0-0.1,0
		c0,0-0.1,0-0.1,0c0,0,0,0,0,0.1c0,0,0,0,0,0c0,0,0,0,0-0.1c0,0-0.1,0-0.1,0c0,0,0,0.1,0,0.1c0,0,0,0,0-0.1c0,0-0.1,0-0.1,0
		c0,0-0.1,0-0.1,0.1c-0.1,0-0.1,0-0.1,0.1c0,0-0.1,0-0.1,0.1c-0.1,0-0.3,0.1-0.4,0.2c-0.1,0-0.1,0.1-0.2,0.1C13.1,0.9,13,1,12.9,1
		c-0.1,0-0.1,0.1-0.2,0.1c-0.1,0-0.2,0.1-0.3,0.1c0,0,0,0,0,0c0,0-0.1,0-0.1,0c-0.1,0-0.1,0-0.2,0c-0.1,0-0.1,0-0.1,0
		c0,0,0,0-0.1,0.1c-0.1,0.1-0.2,0.1-0.3,0.1c0,0-0.1,0-0.1,0.1c0,0-0.1,0-0.1,0c0,0,0,0-0.1,0c-0.1,0-0.2,0.1-0.3,0.1
		c0,0-0.1,0-0.1,0c0,0,0,0-0.1,0c-0.1,0-0.1,0.1-0.2,0.1c-0.1,0-0.2,0.1-0.3,0.1c0,0,0,0,0,0c0.1,0,0.2-0.1,0.3-0.1
		c0.1,0,0.2-0.1,0.4-0.1c0,0,0.1,0,0.1-0.1c-0.1,0-0.1,0-0.2,0c0,0,0,0,0,0c0.1,0,0.2-0.1,0.3-0.1c0.1,0,0.2-0.1,0.3-0.2
		c0,0,0.1,0,0.1,0c0.1,0,0.1,0,0.2-0.1c0,0,0,0,0-0.1C12,1,12,1,12,1c0,0,0,0,0,0c0,0,0,0,0.1,0c0,0,0.1,0,0.1,0c0,0,0.1-0.1,0.2,0
		c0,0,0.1,0,0.1,0c0,0,0,0-0.1-0.1c0.4-0.2,0.8-0.3,1.2-0.4c0,0-0.1,0-0.1,0c0,0-0.1,0-0.1,0c-0.2,0.1-0.3,0.1-0.5,0.2
		c-0.2,0.1-0.4,0.1-0.6,0.2c-0.1,0-0.1,0-0.2,0.1c-0.1,0.1-0.2,0.1-0.4,0.2c0,0,0,0,0,0c-0.1,0-0.2,0-0.2,0.1c0,0,0,0,0,0
		c0,0,0,0,0,0c0,0,0,0,0,0c-0.1,0-0.1,0-0.2,0c0,0,0,0,0,0c0,0-0.1,0-0.1,0c0,0,0,0,0,0c0,0-0.1,0-0.1,0.1c0,0-0.1,0.1-0.1,0.1
		c0,0,0,0,0,0c-0.1,0-0.2,0.1-0.2,0.1c0,0,0,0-0.1,0c0,0,0.1-0.1,0.1-0.1c0,0,0,0,0,0c0,0,0.1,0,0.1,0c0,0,0.1-0.1,0.1-0.1
		c0,0,0.1,0,0.1-0.1c-0.1,0-0.1,0-0.2,0c0,0,0,0,0,0c-0.1,0-0.1,0-0.2,0c0,0-0.1,0-0.1,0c0,0,0,0,0,0C10.1,1.5,10,1.5,9.9,1.6
		C9.5,1.7,9.2,1.8,8.9,2C8.7,2.1,8.5,2.1,8.3,2.2C8.1,2.3,8,2.3,7.9,2.4c-0.1,0-0.2,0.1-0.3,0.1C7.5,2.6,7.3,2.6,7.2,2.7
		C6.9,2.8,6.7,2.9,6.4,3c0,0,0,0,0,0C6.3,3.1,6.1,3.1,6,3.2C5.8,3.3,5.5,3.4,5.3,3.5c-0.1,0-0.1,0-0.2,0.1C4.9,3.7,4.8,3.7,4.6,3.8
		C4.4,3.9,4.2,4,4,4.1C3.7,4.3,3.5,4.4,3.2,4.5C3,4.6,2.9,4.7,2.7,4.8C2.6,4.9,2.5,5,2.4,5C2.2,5.2,1.9,5.3,1.7,5.5
		C1.5,5.6,1.4,5.7,1.3,5.8C1.2,5.9,1,6,0.9,6.1C0.7,6.2,0.6,6.3,0.5,6.4c0,0,0,0.1,0,0.1c0,0,0.1,0,0.1-0.1c0,0.1,0.1,0,0.1,0
		c0,0,0,0,0,0c0,0-0.1,0-0.1,0c-0.1,0-0.1,0.1-0.2,0.1c0,0-0.1,0-0.1,0c-0.1,0-0.1,0-0.2,0.1c0,0,0,0,0,0c0,0,0,0,0.1,0
		c0,0-0.1,0-0.1,0.1c0,0,0.1,0,0.1,0c0,0,0,0,0.1,0c0,0,0,0,0,0.1C0.2,7,0.2,7,0.1,7c0,0,0,0-0.1,0c0,0-0.1,0-0.1,0.1
		c0.1,0,0.2,0,0.3-0.1C0.4,7.1,0.5,7,0.6,7c0,0,0,0,0,0c0,0,0,0,0,0C0.4,7.1,0.3,7.2,0.2,7.3c0,0-0.1,0-0.1,0.1c0,0,0,0-0.1,0
		c0,0.1,0,0.1,0.1,0.2c0,0,0,0,0.1,0c0,0,0,0,0,0c0,0.1,0,0.1,0.1,0.1c0,0,0,0,0,0c0,0.1,0,0,0.1,0c0,0,0,0.1,0,0.1
		c0,0.1,0,0.1,0.1,0.1c0,0,0,0,0.1,0c0,0,0.1,0,0.1,0c0,0,0,0,0,0c0,0,0,0,0.1,0c0.1,0,0.2-0.1,0.3-0.1C0.8,7.9,0.6,8,0.5,8.1
		c0,0,0,0.1,0,0.1c0.1,0,0.2,0,0.3,0c0,0,0,0-0.1,0.1c0,0,0,0,0,0C0.9,8.1,1,8.1,1.1,8c0,0,0,0,0,0c0.1,0.1,0.1,0.1,0.2,0
		C1.5,8,1.8,7.9,2.1,7.8c0.4-0.2,0.8-0.3,1.2-0.5c0.2-0.1,0.3-0.1,0.5-0.2c0,0,0.1,0,0.1,0c0,0,0,0-0.1,0.1c0,0,0,0,0,0
		c0,0.1,0,0.1-0.1,0.1C3.5,7.4,3.3,7.5,3.2,7.6c0,0-0.1,0.1-0.1,0.1c0,0-0.1,0-0.1,0.1c0,0,0,0,0,0.1c0,0-0.1,0.1-0.1,0.1
		c0,0-0.1,0.1-0.1,0.1c0,0,0,0,0,0c0,0-0.1,0-0.1,0.1c-0.1,0-0.2,0.1-0.2,0.1c-0.1,0-0.2,0.1-0.3,0.2c0,0,0,0,0,0c0,0,0,0,0,0
		c0,0,0,0,0,0c0,0,0,0,0,0.1c0,0,0,0,0.1,0c0,0.1,0,0.1-0.1,0.1c0,0-0.1,0-0.1,0c0.1,0,0.1,0,0.2-0.1c0.1,0,0.1,0,0.2,0
		C2.2,8.8,2.1,8.8,2,8.9c0,0,0,0.1,0,0.1c0,0,0.1,0,0.1,0c0,0,0.1-0.1,0.1,0C2.2,9,2.1,9,2.1,9.1c0,0,0,0,0,0c0,0,0,0,0,0
		c0,0,0,0,0,0.1c0,0,0,0,0,0c0,0,0,0,0,0C2,9.2,1.9,9.3,1.9,9.4c0.1,0,0.1,0,0.1,0c0,0,0.1-0.1,0.1-0.1c0,0,0,0,0,0c0,0,0,0,0,0
		c0,0,0,0,0,0c0,0,0,0,0,0c0,0.1,0,0.1-0.1,0.2c0,0,0,0-0.1,0c0,0-0.1,0.1-0.1,0.1c0,0,0,0.1,0,0.1c0,0,0,0,0.1,0c0,0,0.1,0,0.1,0
		C2,9.8,2,9.8,1.9,9.9c0,0,0,0,0,0c0,0-0.1,0-0.1,0.1c0,0,0,0,0.1,0c0,0,0,0,0,0c-0.1,0-0.1,0-0.1,0c0,0-0.1,0-0.1-0.1
		C1.6,10,1.6,10,1.5,10c-0.2,0.1-0.3,0.2-0.5,0.3c-0.2,0.1-0.4,0.2-0.6,0.3c0,0-0.1,0.1-0.1,0.1c0,0.1-0.1,0.1-0.1,0.2
		c0,0,0.1,0.1,0.1,0.1c0.1-0.1,0.3-0.1,0.4-0.2c0.2-0.1,0.4-0.1,0.5-0.3c0,0,0.1,0,0.1,0c0,0,0,0,0.1,0.1c-0.1,0.1-0.2,0.1-0.3,0.2
		C1,10.9,0.9,10.9,0.8,11c-0.1,0.1-0.3,0.1-0.4,0.1c0,0,0,0,0,0c0,0,0,0,0,0c0,0,0,0.1-0.1,0.1c0,0,0,0.1,0.1,0.1c0,0,0.1,0,0.1,0
		c0,0.1-0.1,0-0.1,0.1c0,0,0,0,0.1,0c0,0,0.1,0,0.2,0c0.1,0,0.2,0,0.2,0c0.1,0,0.2-0.1,0.3-0.1c0.1,0,0.2,0,0.3,0
		c-0.1,0-0.1,0.1-0.2,0.1c0,0,0,0,0,0c0.1,0,0.2,0,0.3-0.1c-0.1,0.1-0.1,0.1-0.2,0.1c0,0-0.1,0-0.1,0.1c-0.1,0.1-0.2,0.1-0.3,0.2
		c-0.1,0-0.1,0-0.2,0c0,0-0.1,0.1-0.1,0.1c0,0,0,0.1,0,0.1c-0.1,0.1-0.1,0.1,0,0.2c0,0,0.1,0,0.1,0c0,0,0,0,0,0.1c0,0,0,0,0-0.1
		c0.1,0,0.2,0,0.3,0c-0.1,0-0.1,0.1-0.2,0.1c0,0-0.1,0-0.1,0.1c0,0.1,0,0.1-0.1,0.1c-0.1,0-0.2,0.1-0.3,0.1c0,0,0.1,0.1,0.1,0.1
		c0,0,0.1,0,0.1,0c0,0,0.1,0,0.1,0c0,0,0,0,0.1,0c-0.1,0.1-0.2,0.1-0.3,0.1c-0.1,0.1-0.2,0.1-0.2,0.1c0.1,0,0.2-0.1,0.3-0.1
		c0.1,0,0.2-0.1,0.3-0.1c0.1,0,0.1,0,0.2-0.1c0.1-0.1,0.3-0.2,0.4-0.2c0,0,0,0.1,0.1,0.1c-0.1,0.1-0.2,0.1-0.3,0.2
		c0,0.1,0.1,0,0.2,0c0,0.1-0.1,0-0.1,0c-0.1,0-0.1-0.1-0.2,0c0,0-0.1,0.1-0.1,0.1c0,0-0.1,0-0.1,0c-0.1,0-0.1,0.1-0.1,0.1
		c-0.1-0.1-0.1-0.1-0.2,0c0,0,0,0,0.1,0c0,0,0,0.1-0.1,0.1c0.1,0,0.2-0.1,0.3-0.1c0,0.1,0,0.1-0.1,0.1c-0.1,0-0.2,0.1-0.3,0.1
		c0,0-0.1,0,0,0.1c0,0,0.1,0,0.1,0c0,0,0.1,0,0.1-0.1c0.2-0.1,0.4-0.2,0.7-0.3c0,0,0,0,0.1,0c0.1,0,0.1,0,0.1-0.1c0.1,0,0.1,0,0.1,0
		c0.1,0,0.3-0.1,0.4-0.2c0.1-0.1,0.2-0.1,0.2,0.1c0-0.1-0.1-0.1-0.1,0c0,0-0.1,0.1-0.2,0.1c-0.1,0-0.2,0.1-0.2,0.1
		c-0.1,0-0.2,0.1-0.3,0.1C1.2,13,1,13.1,0.9,13.1c0,0-0.1,0-0.1,0c0,0-0.1,0-0.1,0.1c-0.1,0.1-0.2,0.1-0.2,0.1
		c-0.1,0-0.1,0.1-0.1,0.1c0,0,0,0,0.1,0c0.1,0,0.2-0.1,0.3-0.1c0.1-0.1,0.2-0.1,0.3-0.1c0.1,0,0.2,0,0.3-0.1c0,0,0,0,0.1,0
		c0.1,0,0.2-0.1,0.4-0.1c0,0,0-0.1,0-0.1C1.6,12.9,1.7,13,1.7,13c0,0,0-0.1,0.1-0.1c0,0,0.1,0,0.1-0.1c0,0,0,0,0.1-0.1
		c0.1,0,0.1,0,0.2-0.1c0,0,0.1,0,0.1,0c0,0,0.1,0,0.1,0.1c0,0,0,0-0.1,0.1c0.1,0,0.1,0,0.2-0.1c0,0,0.1-0.1,0.2,0
		c-0.1,0.1-0.2,0.1-0.3,0.2c0,0,0,0,0,0c0,0,0.1,0,0.1,0c0,0,0,0,0,0c0,0,0,0,0,0.1c0,0,0,0,0.1,0c0,0,0,0.1,0,0.1c0,0,0.1,0,0.1,0
		c0,0.1,0,0.1,0.1,0.1c0.1,0,0.1,0,0.2,0c-0.1,0,0,0.1,0,0.1c0,0-0.1,0-0.1,0c0,0.1-0.1,0.1-0.2,0.2c-0.1,0.1-0.2,0.1-0.3,0.3
		c0.1,0,0.1,0,0.2-0.1c0.1-0.1,0.2-0.1,0.4-0.2c0,0,0.1,0,0.1,0c-0.1,0-0.2,0.1-0.2,0.1c0,0.1-0.1,0-0.1,0.1c-0.1,0-0.2,0.1-0.2,0.1
		c0,0,0,0,0.1,0c-0.1,0.1-0.1,0.1-0.2,0.2c0,0,0,0,0,0c0.1-0.1,0.2-0.1,0.3-0.2c0-0.1,0.2-0.1,0.2-0.2C3,13.7,3,13.7,3,13.7
		c0,0,0.1,0,0.1,0c0.1,0,0.2-0.1,0.2-0.1c0.1,0,0.1,0,0.1-0.1c0.1-0.1,0.3-0.2,0.4-0.3c0,0,0,0,0.1,0c0,0,0,0,0.1,0c0,0,0,0,0,0
		c0,0,0,0.1,0,0.1c0,0,0.1,0,0.1,0c0,0.1,0,0.1-0.1,0.1c0,0,0,0,0,0c0,0,0,0,0,0.1c0,0,0,0,0.1-0.1c0,0,0,0,0,0c0,0,0,0,0,0
		c-0.1,0-0.2,0.1-0.2,0.1c-0.1,0.1-0.3,0.2-0.4,0.3c-0.3,0.1-0.5,0.3-0.8,0.4c-0.1,0-0.1,0.1-0.2,0.1c-0.1,0-0.1,0.1-0.2,0.2
		c0.1,0,0.2,0,0.3,0c0.1-0.1,0.2-0.1,0.2-0.1c0.2-0.1,0.3-0.2,0.5-0.3c0.1,0,0.2-0.1,0.3-0.1c0,0,0,0,0.1,0c0.1-0.1,0.2-0.1,0.2-0.1
		c0.1,0,0.3-0.1,0.4-0.2c0,0,0,0,0,0c0,0.1,0,0.1,0.1,0c0,0,0,0,0.1,0c0,0,0,0,0,0c0,0,0,0-0.1,0.1c0,0-0.1,0.1-0.1,0.1
		c0,0,0,0,0.1,0c0.1-0.1,0.1-0.1,0.2-0.1c0,0,0,0-0.1,0c0,0,0,0,0,0.1c0.1,0,0.1,0,0.2,0c0,0-0.1,0-0.1,0.1c0,0,0,0,0.1,0
		c0,0,0,0.1,0,0.1c0,0,0.1,0,0.1,0c0,0,0,0,0.1,0c0,0,0.1,0,0.1,0c-0.1,0-0.1,0.1-0.1,0.1c0.1,0,0.2-0.1,0.3-0.1c0,0,0,0,0,0.1
		c0.1,0,0.1,0,0.1,0c0.1,0,0.1,0,0.2,0c0.1-0.1,0.1-0.1,0.2-0.1c0.1,0,0.2,0,0.3-0.1c0.1-0.1,0.2-0.1,0.3-0.2c0,0,0,0,0,0
		c0,0,0,0,0,0c0,0,0,0,0,0.1c0,0,0,0,0,0c0,0,0.1,0,0,0.1c0,0,0,0.1,0,0.1c0,0,0.1,0,0.1,0C6.1,14,6,14,6,14.1c0,0,0,0,0,0
		c0,0,0.1,0,0.1-0.1c0,0,0,0,0,0c0,0,0.1,0,0.1,0c0,0,0,0,0,0.1c0,0,0,0.1,0.1,0.1c0,0,0.1,0,0.2,0c0,0,0,0,0,0c0,0,0.1,0,0.1,0
		c0,0,0,0,0,0c0,0,0,0-0.1,0.1c0,0,0.1,0,0.1,0c0.1,0,0.1,0,0.1-0.1c0,0,0,0,0.1-0.1c0.1,0,0.1-0.1,0.2-0.1c0,0,0,0,0,0
		c0,0,0,0,0,0.1c-0.1,0.1-0.1,0.1-0.1,0.1c0,0,0.1,0,0.1,0c0.1-0.1,0.3-0.1,0.4-0.2c0,0,0.1,0,0.1,0c0.1,0,0.2-0.1,0.2-0.1
		c0.1,0,0.1,0,0.2-0.1c0.1,0,0.2-0.1,0.3-0.1c0,0,0,0,0,0c0,0,0,0,0,0c-0.1,0-0.2,0.1-0.3,0.1c0.1,0,0.1-0.1,0.2-0.1
		c0.1,0,0.1-0.1,0.2-0.1c0.1,0,0.1-0.1,0.2-0.1c0,0,0,0,0,0c0,0,0,0-0.1,0.1c0,0,0,0,0,0c0.2-0.1,0.5-0.2,0.7-0.3c0,0-0.1,0-0.1,0
		c0,0-0.1,0-0.1,0c0,0,0,0,0,0c0.1-0.1,0.2-0.1,0.4-0.2c0.1,0,0.1,0,0.2-0.1c0.1,0,0.1-0.1,0.2-0.1c0,0,0,0,0.1-0.1c0,0-0.1,0-0.1,0
		c-0.1,0-0.1,0.1-0.2,0.1c-0.1,0.1-0.2,0.1-0.3,0.2c0,0,0,0-0.1,0c0,0-0.1,0-0.1,0c0,0,0,0,0,0c-0.1,0-0.2,0.1-0.2,0.1
		c0,0-0.1,0-0.1,0c0,0-0.1,0-0.1,0c0,0,0,0-0.1,0c0,0,0,0-0.1,0c0,0,0,0,0,0c-0.1,0-0.1,0.1-0.2,0.1c-0.1,0-0.1,0.1-0.2,0.1
		c-0.1,0-0.1,0.1-0.2,0.1c0,0,0,0,0,0c0.1-0.1,0.2-0.1,0.4-0.2c0,0,0,0,0,0c0,0,0,0,0,0c0,0,0.1,0,0.1-0.1c0,0,0,0,0.1,0
		c0,0,0.1-0.1,0.1-0.1c0.1-0.1,0.3-0.1,0.4-0.2c0.1-0.1,0.3-0.1,0.5-0.2C9.4,13,9.5,13,9.6,13c0,0,0.1,0,0.1-0.1
		c0.1,0,0.1,0,0.2-0.1c0.1,0,0.1-0.1,0.2-0.1c0.1,0,0.2-0.1,0.3-0.2c0.1,0,0.1-0.1,0.2-0.1c0,0,0.1,0,0.1-0.1c0.1,0,0.1-0.1,0.2-0.1
		c0,0,0.1,0,0.1,0c0,0,0,0,0,0c0,0,0.1,0,0.1,0c0.1,0,0.2-0.1,0.2-0.1c0.1,0,0.1-0.1,0.2-0.1c0.1,0,0.2-0.1,0.3-0.1
		c0.1,0,0.2-0.1,0.3-0.1c0.1,0,0.1-0.1,0.2-0.1c0.1,0,0.1-0.1,0.2-0.1c0.1,0,0.2-0.1,0.3-0.1c0.1,0,0.1,0,0.2-0.1c0,0,0,0,0,0
		c-0.1,0-0.1,0.1-0.2,0.1c-0.2,0.1-0.3,0.1-0.5,0.2c-0.1,0-0.1,0.1-0.2,0.1c-0.1,0-0.3,0.1-0.4,0.1c0,0-0.1,0-0.1,0
		c-0.1,0-0.1,0.1-0.2,0.1c0,0,0,0-0.1,0c0,0,0.1,0,0.1-0.1c0.1,0,0.2-0.1,0.2-0.1c0.1-0.1,0.3-0.1,0.4-0.2c0,0,0,0,0.1,0
		c0,0,0,0,0,0c0,0,0,0,0,0c0,0,0,0,0.1,0c0.1-0.1,0.1-0.1,0.2-0.1c0,0,0,0,0.1-0.1c0,0,0,0,0.1,0c0,0,0,0,0,0c0,0,0,0,0.1,0
		c0,0,0.1,0,0.1,0c0,0,0.1,0,0.1-0.1l0,0c0.1,0,0.1,0,0.2,0c0.1,0,0.1-0.1,0.2-0.1c0.1,0,0.2,0,0.3-0.1c0.1,0,0.2-0.1,0.3-0.1
		c0,0,0.1,0,0.1-0.1c0,0,0.1,0,0.1,0c0,0,0,0,0,0v0c0,0,0,0,0,0c0.1,0,0.1,0,0.2,0c0.1,0,0.1,0,0.2-0.1c0.1-0.1,0.2-0.1,0.4-0.1
		c0.1,0,0.1,0,0.2-0.1c0,0,0.1,0,0.1,0c0,0,0.1,0,0.1,0c0.1,0,0.2-0.1,0.3-0.1c0,0,0,0,0.1,0c-0.1,0-0.2,0-0.3,0.1c0,0,0,0,0,0
		c0,0,0,0,0.1,0c0,0,0,0,0,0c0.1,0,0.1,0,0.1,0c0.1,0,0.2,0,0.3-0.1c0.1,0,0.2,0,0.3-0.1c0.1,0,0.2,0,0.3,0c0,0,0,0,0,0
		c0.1,0,0.2,0,0.2-0.1c0,0,0.1,0,0.1,0c0,0,0.1,0,0.1,0c0,0-0.1,0-0.1,0c0,0,0,0,0.1,0c-0.1,0-0.1,0-0.2,0c0,0,0,0,0,0c0,0,0,0,0,0
		c0,0,0.1,0,0.1,0c0,0,0.1,0,0.1,0c0,0,0,0,0.1,0c0,0,0.1,0,0.1,0c0,0,0,0,0,0c0,0,0,0,0.1,0c0,0,0.1,0,0.1,0c0.1,0,0.1-0.1,0.2-0.1
		c0,0,0,0-0.1,0c0,0,0,0,0,0c0,0,0,0,0,0c0,0,0,0-0.1,0c0,0,0.1-0.1,0.1-0.1c0,0,0.1,0,0.1-0.1c0.1,0,0.3-0.1,0.4-0.1
		c0.1,0,0.1,0,0.2-0.1c-0.1,0-0.2,0-0.3,0.1c-0.1,0-0.1,0-0.2,0c0,0,0,0,0,0c-0.1,0-0.1,0-0.2,0.1c0,0,0,0-0.1,0c0,0,0.1,0,0.1-0.1
		c-0.1,0-0.1,0.1-0.2,0c0-0.1,0.1-0.1,0.1-0.1c0.1,0,0.1,0,0.2,0c0,0,0,0,0.1,0c0,0,0.1,0,0.1,0c0.1,0,0.1,0,0.2-0.1
		c0,0,0.1,0,0.1-0.1c0.1,0,0.1,0,0.2-0.1c0,0,0,0,0,0c0,0,0,0,0,0c-0.2,0-0.3,0.1-0.5,0.1c0,0,0,0,0,0c0,0,0,0,0.1,0
		c0,0-0.1,0-0.1,0c0,0,0,0,0,0c0,0,0-0.1,0-0.1c0,0,0,0,0.1,0c0,0,0,0,0,0c0,0-0.1,0-0.1,0c0,0,0,0-0.1-0.1c0,0,0,0,0,0
		c-0.1,0-0.1,0-0.1,0c0,0,0,0,0,0c0,0,0,0,0,0.1c0,0,0,0,0,0c0,0,0,0,0,0c0,0,0,0,0,0c0-0.1,0.1-0.1,0.1-0.2c-0.1,0-0.2,0-0.2,0
		c0.1-0.1,0.3-0.1,0.4-0.2c0,0-0.1,0-0.1,0c0,0,0,0,0,0c0,0,0-0.1,0.1-0.1c0,0,0,0-0.1,0c0,0,0,0,0.1,0c0,0,0.1,0,0.1,0
		c0.1,0,0.1,0,0.2-0.1c0,0,0.1,0,0.1,0c0,0,0,0,0-0.1c-0.1,0-0.3,0.1-0.4,0.1c0,0,0.1-0.1,0.1-0.1c0,0,0.1,0,0.1-0.1c0,0,0,0,0,0
		c-0.1,0-0.1,0.1-0.2,0.1c0,0,0,0,0,0c0,0,0,0-0.1,0c0,0-0.1,0-0.1,0c0,0,0,0,0,0c0,0,0,0,0,0c0,0,0,0,0-0.1c-0.1,0-0.2,0-0.3,0
		c0.1-0.1,0.2-0.1,0.3-0.1c0,0,0.1,0,0.1,0c0,0,0.1,0,0.1,0c0.1,0,0.2-0.1,0.2-0.1c0,0,0,0,0.1-0.1c0,0,0,0,0,0c0.1,0,0.1,0,0.2-0.1
		c0,0,0,0,0,0c0,0,0,0-0.1,0C18,8,18,8,18.1,8c0.1,0,0.1-0.1,0.2-0.1c0,0,0,0,0,0.1c0.1,0,0.2-0.1,0.3-0.1c0.1,0,0.1,0,0.2-0.1
		c0.1,0,0.2,0,0.3,0c0.1,0,0.1,0,0.2-0.1c-0.1,0-0.2,0-0.3,0c-0.1,0-0.2-0.1-0.3,0c0,0,0,0,0,0c-0.1-0.1-0.1,0-0.2,0c0,0,0,0,0.1,0
		c0,0-0.1,0-0.1,0.1c0,0,0,0,0-0.1c0,0-0.1,0-0.1,0c0-0.1,0-0.1,0.1-0.2c0.1,0,0.2,0,0.2-0.1c0,0-0.1,0-0.1,0
		c0.1-0.1,0.1-0.1,0.2-0.1c0,0,0,0.1,0,0.1c0,0,0,0,0,0.1c0.1,0,0.2,0,0.3-0.1c-0.1,0-0.1,0.1-0.2,0c0.1,0,0.2-0.1,0.4-0.1
		c0,0,0,0,0,0c0.1,0,0.1,0,0.2,0c0.1,0,0.2-0.1,0.2-0.1c-0.1,0.1-0.1,0.1,0,0.1c0.1-0.1,0.1-0.1,0.2-0.1c0.1,0,0.2,0,0.2,0
		C20.1,7,20.2,7,20.3,7z M19.2,6.4C19.2,6.4,19.2,6.4,19.2,6.4C19.2,6.4,19.2,6.4,19.2,6.4C19.2,6.4,19.2,6.4,19.2,6.4
		C19.2,6.4,19.2,6.4,19.2,6.4z M18.7,5.9c-0.1,0.1-0.1,0.1-0.2,0C18.6,5.9,18.7,5.9,18.7,5.9z M18.7,6c-0.1,0-0.1,0-0.1,0
		C18.6,6,18.6,6,18.7,6z M17.5,5.7C17.5,5.7,17.5,5.7,17.5,5.7C17.5,5.7,17.5,5.7,17.5,5.7C17.5,5.7,17.5,5.7,17.5,5.7
		C17.5,5.7,17.5,5.7,17.5,5.7z M17.4,5.7C17.4,5.7,17.4,5.8,17.4,5.7C17.3,5.8,17.3,5.8,17.4,5.7C17.3,5.7,17.4,5.7,17.4,5.7z
		 M19,4.5C19.1,4.5,19.1,4.5,19,4.5C19.1,4.5,19,4.5,19,4.5C19,4.5,19,4.5,19,4.5z M18.8,4.2c-0.1,0-0.2,0.1-0.2,0.1c0,0,0,0,0,0
		C18.6,4.3,18.6,4.2,18.8,4.2z M18.2,4.5c0,0-0.1,0-0.1,0C18.2,4.5,18.2,4.5,18.2,4.5z M18,4.6C18,4.6,17.9,4.6,18,4.6
		C17.9,4.6,17.9,4.6,18,4.6C17.9,4.6,18,4.6,18,4.6z M17.8,4.6C17.8,4.6,17.8,4.6,17.8,4.6C17.8,4.6,17.8,4.6,17.8,4.6
		c0,0-0.1,0-0.1,0C17.7,4.5,17.8,4.6,17.8,4.6z M17.2,4.3c0,0,0,0.1,0,0.1c0,0-0.1,0-0.1,0C17.1,4.4,17.1,4.4,17.2,4.3z M18.3,3.8
		c0,0.1-0.1,0-0.1,0.1C18.2,3.8,18.3,3.7,18.3,3.8z M17,4.3C17,4.3,17,4.3,17,4.3C17,4.3,17,4.3,17,4.3C16.9,4.3,17,4.3,17,4.3z
		 M15.5,4.5c0,0-0.1,0-0.1,0.1C15.4,4.5,15.4,4.5,15.5,4.5C15.4,4.4,15.4,4.4,15.5,4.5z M15.4,3.6c0,0,0.1,0,0.1-0.1c0,0,0,0,0,0
		c0,0,0,0,0,0C15.5,3.6,15.5,3.6,15.4,3.6C15.5,3.6,15.4,3.6,15.4,3.6C15.4,3.6,15.4,3.6,15.4,3.6z M16.1,2.2
		C16.1,2.2,16.1,2.2,16.1,2.2C16.1,2.2,16,2.2,16.1,2.2C16,2.2,16,2.2,16.1,2.2z M15.8,2.3C15.8,2.4,15.8,2.4,15.8,2.3
		C15.7,2.3,15.8,2.3,15.8,2.3z M15.3,2.5C15.4,2.4,15.4,2.4,15.3,2.5C15.4,2.4,15.4,2.4,15.3,2.5C15.4,2.5,15.4,2.5,15.3,2.5
		C15.4,2.5,15.3,2.5,15.3,2.5C15.3,2.5,15.3,2.5,15.3,2.5C15.3,2.5,15.3,2.5,15.3,2.5z M15.3,2.1C15.3,2.1,15.3,2.1,15.3,2.1
		C15.3,2.1,15.3,2.1,15.3,2.1z M15.4,2.6C15.4,2.6,15.4,2.6,15.4,2.6c-0.1,0.1-0.2,0.1-0.3,0.1C15.2,2.7,15.3,2.6,15.4,2.6z M15,1.5
		C15,1.5,15,1.5,15,1.5C15,1.5,15,1.5,15,1.5C14.9,1.5,14.9,1.5,15,1.5C15,1.5,15,1.5,15,1.5z M14.9,1.5C14.9,1.5,14.9,1.6,14.9,1.5
		C14.8,1.6,14.8,1.6,14.9,1.5C14.8,1.6,14.8,1.6,14.9,1.5C14.8,1.6,14.8,1.5,14.9,1.5z M14.7,1.6C14.7,1.6,14.7,1.6,14.7,1.6
		C14.7,1.6,14.7,1.6,14.7,1.6C14.7,1.6,14.7,1.6,14.7,1.6C14.7,1.6,14.7,1.6,14.7,1.6z M14.8,0.3C14.8,0.3,14.9,0.3,14.8,0.3
		C14.9,0.3,14.9,0.3,14.8,0.3C14.8,0.3,14.8,0.3,14.8,0.3C14.8,0.3,14.8,0.3,14.8,0.3z M14.8,0.4C14.8,0.4,14.8,0.4,14.8,0.4
		C14.8,0.4,14.8,0.4,14.8,0.4C14.8,0.4,14.8,0.4,14.8,0.4C14.8,0.4,14.8,0.4,14.8,0.4z M14.4,0.5C14.4,0.5,14.3,0.5,14.4,0.5
		C14.3,0.5,14.3,0.5,14.4,0.5z M14.1,0.6C14.1,0.6,14.2,0.6,14.1,0.6C14.1,0.6,14.1,0.6,14.1,0.6C14.1,0.6,14.1,0.6,14.1,0.6z
		 M14.1,0.7C14.1,0.7,14.1,0.7,14.1,0.7C14.1,0.6,14.1,0.6,14.1,0.7z M13.9,0.7C13.9,0.7,13.9,0.7,13.9,0.7
		C13.9,0.7,13.9,0.7,13.9,0.7C13.9,0.7,13.9,0.8,13.9,0.7C13.8,0.7,13.8,0.7,13.9,0.7z M13.8,0.7C13.8,0.7,13.8,0.7,13.8,0.7
		C13.8,0.7,13.8,0.7,13.8,0.7C13.8,0.7,13.8,0.7,13.8,0.7C13.8,0.7,13.8,0.7,13.8,0.7z M13.7,0.8C13.7,0.8,13.7,0.8,13.7,0.8
		C13.7,0.8,13.7,0.8,13.7,0.8C13.7,0.8,13.7,0.8,13.7,0.8C13.7,0.8,13.7,0.8,13.7,0.8z M13.6,0.9C13.6,0.9,13.6,0.9,13.6,0.9
		C13.6,0.9,13.6,0.9,13.6,0.9C13.6,0.9,13.6,0.9,13.6,0.9C13.6,0.9,13.6,0.9,13.6,0.9z M13.1,1C13.2,1,13.2,1,13.1,1
		c0.1-0.1,0.2-0.1,0.2,0C13.2,1,13.1,1,13,1.1C13,1,13.1,1,13.1,1z M12.6,1.4C12.6,1.4,12.6,1.4,12.6,1.4
		C12.5,1.4,12.5,1.4,12.6,1.4C12.5,1.4,12.5,1.4,12.6,1.4C12.5,1.4,12.5,1.4,12.6,1.4z M12.4,1.5C12.4,1.5,12.4,1.5,12.4,1.5
		C12.3,1.5,12.3,1.5,12.4,1.5C12.3,1.5,12.3,1.5,12.4,1.5C12.3,1.5,12.3,1.5,12.4,1.5z M12.1,1.6C12.1,1.6,12.1,1.6,12.1,1.6
		C12.1,1.6,12,1.6,12.1,1.6C12,1.6,12,1.6,12.1,1.6C12,1.6,12.1,1.6,12.1,1.6z M10.9,1.5c-0.1,0-0.1,0.1-0.2,0.1
		C10.7,1.6,10.8,1.5,10.9,1.5z M2.2,8.9C2.2,8.8,2.2,8.8,2.2,8.9C2.2,8.8,2.2,8.8,2.2,8.9C2.2,8.8,2.2,8.9,2.2,8.9
		C2.2,8.9,2.2,8.9,2.2,8.9z M0.4,12.5C0.4,12.5,0.4,12.5,0.4,12.5C0.5,12.5,0.5,12.5,0.4,12.5C0.5,12.5,0.5,12.5,0.4,12.5
		C0.5,12.5,0.5,12.5,0.4,12.5z M1,12C1,12,1,12,1,12C1.1,12,1,12,1,12z M1,12.8c0,0,0.1-0.1,0.2-0.1C1.1,12.7,1.1,12.7,1,12.8z
		 M3,8.1C3,8,3,8,3,8.1c0.2-0.1,0.2-0.1,0.3-0.1C3.1,8.1,3,8.1,2.9,8.2C2.9,8.1,2.9,8.1,3,8.1z M3.1,8.2C3,8.2,3,8.2,3.1,8.2
		C3,8.2,3,8.2,3.1,8.2C3,8.2,3,8.2,3.1,8.2C3,8.2,3,8.2,3.1,8.2C3.1,8.2,3.1,8.2,3.1,8.2z M2.8,8.3C2.8,8.3,2.7,8.3,2.8,8.3
		c0,0,0.1-0.1,0.2-0.1C2.8,8.4,2.7,8.4,2.5,8.5C2.7,8.3,2.7,8.3,2.8,8.3z M2.8,8.7C2.8,8.7,2.8,8.7,2.8,8.7C2.7,8.7,2.7,8.7,2.8,8.7
		C2.8,8.7,2.8,8.7,2.8,8.7C2.8,8.7,2.8,8.7,2.8,8.7z M2.5,8.8C2.5,8.8,2.4,8.8,2.5,8.8C2.4,8.9,2.4,8.8,2.5,8.8
		C2.4,8.8,2.5,8.8,2.5,8.8C2.5,8.8,2.5,8.8,2.5,8.8z M2.5,8.4C2.5,8.4,2.5,8.4,2.5,8.4C2.5,8.4,2.5,8.5,2.5,8.4
		C2.4,8.5,2.4,8.4,2.5,8.4z M2.3,8.9c0,0,0.1-0.1,0.1-0.1c0,0,0,0,0,0C2.4,8.8,2.4,8.8,2.3,8.9C2.3,8.9,2.3,8.9,2.3,8.9
		C2.3,8.9,2.3,8.9,2.3,8.9z M2.2,9.6C2.2,9.6,2.2,9.5,2.2,9.6c0.1-0.1,0.1-0.1,0.1-0.1c0,0,0,0,0,0C2.3,9.5,2.3,9.6,2.2,9.6
		c0.1-0.1,0.2-0.1,0.2-0.1C2.3,9.6,2.3,9.6,2.2,9.6C2.2,9.6,2.2,9.7,2.2,9.6C2.2,9.6,2.2,9.6,2.2,9.6z M1.9,10.1
		C1.9,10.1,1.9,10.1,1.9,10.1c0,0.1-0.1,0.1-0.1,0.1C1.8,10.1,1.8,10.1,1.9,10.1z M0.6,10.8C0.6,10.8,0.6,10.8,0.6,10.8
		C0.6,10.8,0.6,10.8,0.6,10.8C0.6,10.8,0.6,10.8,0.6,10.8C0.6,10.8,0.6,10.8,0.6,10.8z M1.2,10.5c0,0-0.1,0-0.1,0.1
		c-0.1,0.1-0.2,0.1-0.3,0.2c0,0-0.1,0-0.1,0c0,0,0.1,0,0.1,0c0,0,0,0,0-0.1c0.1,0,0.1-0.1,0.2,0c0,0,0,0,0,0
		C1,10.6,1.1,10.5,1.2,10.5C1.2,10.4,1.2,10.4,1.2,10.5C1.2,10.5,1.2,10.5,1.2,10.5z M1.3,10.4C1.3,10.4,1.3,10.4,1.3,10.4
		C1.3,10.4,1.3,10.4,1.3,10.4C1.3,10.4,1.3,10.4,1.3,10.4z M1.5,10.3C1.5,10.3,1.5,10.3,1.5,10.3c-0.1-0.1-0.2,0-0.3,0
		c0,0,0,0-0.1,0c0,0,0,0,0,0c0,0,0,0,0.1-0.1c0.1-0.1,0.2-0.1,0.3-0.2c0,0,0.1-0.1,0.1,0C1.5,10.1,1.5,10.2,1.5,10.3z M1.6,10.3
		C1.6,10.2,1.6,10.2,1.6,10.3C1.6,10.2,1.6,10.2,1.6,10.3C1.6,10.2,1.6,10.3,1.6,10.3C1.6,10.3,1.6,10.3,1.6,10.3z M1.5,10.5
		C1.6,10.5,1.6,10.5,1.5,10.5C1.6,10.5,1.6,10.5,1.5,10.5C1.6,10.5,1.6,10.5,1.5,10.5C1.5,10.5,1.5,10.5,1.5,10.5z M1.4,11.3
		C1.4,11.3,1.4,11.3,1.4,11.3C1.5,11.2,1.5,11.2,1.4,11.3C1.5,11.2,1.5,11.3,1.4,11.3C1.5,11.3,1.5,11.3,1.4,11.3z M1.7,10.3
		c0,0,0-0.1,0-0.1c0,0,0.1,0,0.1,0C1.8,10.2,1.7,10.3,1.7,10.3z M1.7,10.4C1.7,10.4,1.8,10.4,1.7,10.4c0.1,0,0.1,0,0.1,0
		C1.8,10.4,1.8,10.4,1.7,10.4c0.1-0.1,0.1-0.1,0.1-0.1c0,0,0.1,0,0.1,0c0,0,0,0,0,0C1.9,10.4,1.8,10.5,1.7,10.4z M1.5,12.6
		C1.5,12.6,1.4,12.6,1.5,12.6C1.4,12.6,1.4,12.6,1.5,12.6C1.5,12.6,1.5,12.6,1.5,12.6C1.5,12.6,1.5,12.6,1.5,12.6z M1.5,12.3
		c0.1-0.1,0.1-0.1,0.1,0C1.6,12.3,1.6,12.3,1.5,12.3z M1.7,12.3c0-0.1,0-0.1,0.1-0.1C1.8,12.3,1.8,12.3,1.7,12.3z M1.9,12.5
		C1.9,12.5,1.9,12.5,1.9,12.5C1.9,12.5,1.9,12.5,1.9,12.5C1.9,12.5,1.9,12.5,1.9,12.5C1.9,12.5,1.9,12.5,1.9,12.5z M2.4,9.9
		c-0.1,0-0.2,0.1-0.2,0.1c0,0-0.1,0-0.1,0c0,0,0,0,0,0c0,0-0.1,0-0.1,0C2,10,2,10,2.1,10c0,0,0.1,0,0.1-0.1C2.3,9.9,2.4,9.9,2.4,9.9
		C2.4,9.9,2.4,9.9,2.4,9.9C2.5,9.9,2.5,9.9,2.4,9.9c0.1-0.1,0.1-0.1,0.1-0.1C2.5,9.9,2.5,9.9,2.4,9.9z M2.4,9.5
		c0.1-0.1,0.2-0.1,0.3-0.2c0,0,0,0,0,0c0,0,0,0-0.1,0C2.6,9.4,2.5,9.4,2.4,9.5z M2.7,9.5C2.7,9.5,2.7,9.5,2.7,9.5
		C2.7,9.4,2.7,9.4,2.7,9.5C2.7,9.5,2.7,9.5,2.7,9.5z M2.8,9.3C2.8,9.2,2.8,9.2,2.8,9.3C2.8,9.2,2.8,9.2,2.8,9.3
		C2.8,9.2,2.8,9.2,2.8,9.3c0.1,0,0.1,0,0.1,0c0,0,0,0,0,0c0,0,0,0,0,0C2.9,9.3,2.8,9.3,2.8,9.3C2.8,9.3,2.8,9.3,2.8,9.3z M2.8,9.4
		c0-0.1,0-0.1,0.2-0.1c0,0,0,0,0,0C2.9,9.4,2.9,9.4,2.8,9.4C2.9,9.4,2.8,9.4,2.8,9.4z M2.4,12.8c0-0.1,0-0.1,0.1-0.1
		C2.5,12.8,2.5,12.8,2.4,12.8z M2.5,12.9c0,0,0.1-0.1,0.1-0.1c0,0,0,0,0,0C2.6,12.9,2.6,12.9,2.5,12.9z M2.7,11.9
		C2.7,11.9,2.6,11.9,2.7,11.9C2.6,11.8,2.7,11.8,2.7,11.9c0-0.1,0.1-0.1,0.1,0C2.8,11.8,2.7,11.9,2.7,11.9z M2.9,11.7
		C2.9,11.7,2.9,11.7,2.9,11.7C2.9,11.7,2.9,11.7,2.9,11.7C2.9,11.7,2.9,11.7,2.9,11.7C2.9,11.7,2.9,11.7,2.9,11.7z M3.3,9.2
		C3.3,9.3,3.2,9.3,3.2,9.2C3.2,9.2,3.2,9.2,3.3,9.2C3.3,9.2,3.3,9.2,3.3,9.2C3.3,9.2,3.3,9.2,3.3,9.2z M3.3,9.1
		C3.3,9.1,3.3,9.1,3.3,9.1c-0.1,0-0.1,0-0.2,0.1c0,0,0,0,0,0c0,0-0.1,0-0.1,0c0,0,0.1,0,0.1,0c0,0,0,0,0,0c0,0,0,0,0,0
		c0,0,0,0,0.1,0c0,0,0,0,0,0c0,0,0,0,0,0c0,0,0,0,0,0C3.2,9.1,3.3,9.1,3.3,9.1C3.3,9.1,3.3,9.1,3.3,9.1C3.3,9.1,3.4,9.1,3.3,9.1
		C3.4,9.1,3.4,9.1,3.3,9.1C3.4,9,3.5,9,3.5,9c0.1,0,0.2-0.1,0.2-0.1c0,0,0,0,0,0c0,0,0,0,0,0c0,0-0.1,0.1-0.1,0.1c0,0,0,0,0,0
		C3.5,9.1,3.4,9.1,3.3,9.1z M3.1,13.2c-0.1,0-0.1,0-0.1,0.1c-0.1,0-0.1,0-0.1-0.1C3,13.1,3.1,13.1,3.1,13.2c0-0.1,0-0.2,0-0.2
		C3.2,13,3.2,13.1,3.1,13.2z M3.3,13C3.3,13,3.3,12.9,3.3,13C3.4,12.9,3.4,13,3.3,13C3.4,13,3.3,13,3.3,13z M8.9,13.5
		c-0.1,0.1-0.2,0.1-0.3,0.1C8.7,13.5,8.8,13.5,8.9,13.5z M17.2,9.9C17.2,9.9,17.2,9.9,17.2,9.9C17.2,9.9,17.2,9.9,17.2,9.9z
		 M17.4,9.1C17.4,9.1,17.4,9.1,17.4,9.1C17.4,9.1,17.4,9.1,17.4,9.1C17.4,9.1,17.4,9.1,17.4,9.1C17.4,9.1,17.4,9.1,17.4,9.1z
		 M18.1,7.5c0,0,0,0.1-0.1,0.1C18,7.5,18.1,7.5,18.1,7.5z M18,7.5C18,7.5,18,7.5,18,7.5C18,7.5,18,7.5,18,7.5C18,7.5,18,7.5,18,7.5
		C18,7.5,18,7.5,18,7.5z M18,7.2c0.1,0,0.1-0.1,0.2-0.1c0,0-0.1,0-0.1,0C18,7.2,18,7.3,18,7.2z M18.2,7.1C18.1,7,18.1,7,18,7
		c0,0,0.1,0,0.1-0.1c-0.1,0-0.1,0-0.2,0c0,0,0,0,0,0c0.1,0,0.1-0.1,0.2-0.1c0,0,0,0,0,0c0,0,0,0-0.1,0c0.1,0,0.2,0,0.3-0.1
		c0,0-0.1,0.1-0.1,0.1c0,0,0.1,0,0.1,0C18.2,7,18.2,7,18.2,7.1z M14.7,10.5C14.7,10.5,14.7,10.5,14.7,10.5c0.1-0.1,0.1-0.1,0.1-0.1
		C14.8,10.5,14.8,10.5,14.7,10.5C14.8,10.5,14.7,10.5,14.7,10.5C14.7,10.6,14.7,10.5,14.7,10.5z M12,11c-0.1,0-0.1,0.1-0.2,0.1
		c-0.1,0-0.1,0-0.2,0c0,0,0,0,0,0c0,0,0,0,0,0c0.1,0,0.1-0.1,0.2-0.1c0.1-0.1,0.2-0.1,0.4-0.1c0,0,0,0,0,0c0,0,0.1,0,0.1,0
		c0-0.1,0.1-0.1,0.1-0.1c0,0,0.1,0,0.1,0c0.1,0,0.2,0,0.2-0.1c0,0,0,0,0,0c-0.1,0-0.1,0.1-0.2,0.1C12.3,10.9,12.2,10.9,12,11z
		 M12,11.4C12,11.4,12,11.4,12,11.4C12,11.4,12,11.4,12,11.4C12,11.4,12,11.4,12,11.4C12,11.4,12,11.4,12,11.4z M9.4,12.6
		c-0.1,0-0.2,0.1-0.2,0.1c0,0-0.1,0-0.1,0.1c0,0,0,0-0.1,0.1c-0.1,0-0.2,0.1-0.3,0.1c0,0,0,0-0.1,0c0.1,0,0.2-0.1,0.3-0.1
		c0,0,0.1,0,0.1,0c0,0,0,0,0.1,0c0.1-0.1,0.3-0.1,0.4-0.2c0.1,0,0.2-0.1,0.3-0.1c0,0,0,0,0.1,0c0,0,0,0,0,0
		c-0.1,0.1-0.2,0.1-0.3,0.2c0,0,0,0,0,0c0,0,0,0.1,0,0.1C9.5,12.6,9.5,12.6,9.4,12.6C9.5,12.6,9.5,12.6,9.4,12.6
		C9.4,12.6,9.4,12.6,9.4,12.6z M9.4,12.7C9.4,12.7,9.4,12.7,9.4,12.7C9.4,12.7,9.4,12.7,9.4,12.7C9.4,12.7,9.4,12.7,9.4,12.7
		C9.4,12.7,9.4,12.7,9.4,12.7z M9.3,12.8C9.3,12.8,9.3,12.8,9.3,12.8C9.1,12.9,9.1,12.9,9,13c0,0,0,0-0.1,0c0,0,0,0-0.1,0.1
		c0,0,0,0,0,0c0,0,0,0,0,0c0,0-0.1,0-0.1,0c0-0.1,0.1-0.1,0.3-0.1c0,0,0-0.1,0-0.1c0,0,0,0,0,0c0,0,0.1-0.1,0.2-0.2
		c0.1,0,0.1,0,0.2,0C9.3,12.7,9.3,12.7,9.3,12.8C9.3,12.8,9.3,12.7,9.3,12.8z M8.2,13.2C8.2,13.1,8.3,13.1,8.2,13.2
		C8.3,13.2,8.3,13.2,8.2,13.2z M8.2,13.4C8.2,13.4,8.2,13.4,8.2,13.4C8.2,13.4,8.2,13.4,8.2,13.4C8.2,13.4,8.2,13.4,8.2,13.4
		C8.2,13.4,8.2,13.4,8.2,13.4z M8.2,12.8c-0.1,0.1-0.1,0.1-0.2,0.1c0,0,0,0,0.1,0C8.1,12.8,8.1,12.8,8.2,12.8c0-0.1,0-0.1,0-0.1
		C8.2,12.7,8.2,12.7,8.2,12.8C8.1,12.8,8.2,12.8,8.2,12.8z M8,13.3C8,13.3,8,13.3,8,13.3C8.1,13.3,8.1,13.3,8,13.3z M8,13.3
		C8,13.4,8,13.4,8,13.3C8,13.4,8,13.4,8,13.3C8,13.4,8,13.3,8,13.3C8,13.3,8,13.3,8,13.3z M8,13.1C8,13.1,8,13.1,8,13.1
		C7.9,13.1,7.9,13.1,8,13.1C7.9,13.1,8,13.1,8,13.1C8,13.1,8,13.1,8,13.1z M7.3,13.5C7.3,13.5,7.3,13.5,7.3,13.5
		C7.3,13.4,7.3,13.5,7.3,13.5z M7.4,13.1C7.4,13.1,7.4,13.2,7.4,13.1C7.3,13.1,7.4,13.1,7.4,13.1z M4.6,13.6
		C4.6,13.7,4.6,13.7,4.6,13.6C4.5,13.7,4.6,13.7,4.6,13.6z M4.3,13.1C4.3,13.1,4.3,13.1,4.3,13.1C4.2,13.1,4.2,13.1,4.3,13.1
		C4.2,13.1,4.3,13.1,4.3,13.1z M4.8,12.1C4.8,12.1,4.8,12.1,4.8,12.1C4.8,12.1,4.8,12.1,4.8,12.1C4.8,12.1,4.8,12.1,4.8,12.1
		C4.8,12.2,4.8,12.2,4.8,12.1C4.8,12.2,4.8,12.1,4.8,12.1z M4.6,13.5C4.6,13.5,4.6,13.5,4.6,13.5c0,0-0.1,0-0.1,0.1c0,0,0,0,0,0
		C4.5,13.5,4.5,13.5,4.6,13.5z M13.8,3C13.8,3,13.8,2.9,13.8,3C13.8,2.9,13.8,2.9,13.8,3C13.8,3,13.8,3,13.8,3C13.8,3,13.8,3,13.8,3
		z M14.2,2.8C14.2,2.8,14.2,2.8,14.2,2.8C14.2,2.8,14.2,2.8,14.2,2.8C14.2,2.9,14.2,2.9,14.2,2.8C14.2,2.8,14.2,2.8,14.2,2.8z
		 M14.1,4.2C14.1,4.2,14.1,4.2,14.1,4.2C14.2,4.2,14.2,4.2,14.1,4.2C14.2,4.2,14.2,4.2,14.1,4.2C14.2,4.2,14.2,4.2,14.1,4.2
		C14.2,4.2,14.1,4.2,14.1,4.2z M14.3,4.1C14.3,4.1,14.2,4.1,14.3,4.1C14.3,4.1,14.3,4.1,14.3,4.1C14.3,4.1,14.3,4.1,14.3,4.1
		C14.3,4.1,14.3,4.2,14.3,4.1C14.3,4.2,14.3,4.2,14.3,4.1C14.3,4.1,14.3,4.1,14.3,4.1z M14.8,2.8C14.8,2.8,14.8,2.8,14.8,2.8
		C14.8,2.8,14.8,2.8,14.8,2.8C14.7,2.8,14.7,2.8,14.8,2.8C14.8,2.8,14.8,2.8,14.8,2.8z M14.7,2.5C14.8,2.5,14.8,2.5,14.7,2.5
		C14.8,2.5,14.8,2.5,14.7,2.5z M14.7,5.1C14.7,5.1,14.7,5.1,14.7,5.1C14.7,5.1,14.7,5.1,14.7,5.1C14.7,5.1,14.7,5.1,14.7,5.1
		C14.7,5.1,14.7,5.1,14.7,5.1z M16.2,7.8c0,0-0.1,0-0.1,0.1c0,0,0,0,0,0C16.2,7.7,16.2,7.7,16.2,7.8z M16.2,7.3
		C16.2,7.3,16.2,7.3,16.2,7.3C16.2,7.4,16.2,7.4,16.2,7.3z M13.9,10.2C13.9,10.2,13.9,10.2,13.9,10.2C13.9,10.2,13.9,10.2,13.9,10.2
		c0-0.1,0-0.2,0.1-0.1c0,0,0,0,0.1,0C14,10.2,13.9,10.2,13.9,10.2z M13.9,10.5C13.9,10.5,13.9,10.5,13.9,10.5
		C13.9,10.5,13.9,10.5,13.9,10.5C13.9,10.4,13.9,10.4,13.9,10.5C13.9,10.5,13.9,10.5,13.9,10.5z M12.9,10.7
		C12.9,10.6,12.9,10.6,12.9,10.7c0.1-0.1,0.1-0.1,0.2-0.1C13,10.6,13,10.7,12.9,10.7z M13,10.8C13,10.8,12.9,10.8,13,10.8
		C12.9,10.8,12.9,10.8,13,10.8z M12.7,10.7C12.7,10.7,12.7,10.7,12.7,10.7C12.7,10.7,12.8,10.7,12.7,10.7
		C12.8,10.7,12.8,10.7,12.7,10.7z M12.7,10.9C12.7,10.9,12.7,10.9,12.7,10.9C12.7,10.9,12.7,10.9,12.7,10.9
		C12.7,10.9,12.7,10.9,12.7,10.9C12.7,10.9,12.7,10.9,12.7,10.9z M12.6,10.6C12.5,10.7,12.5,10.7,12.6,10.6
		C12.5,10.6,12.5,10.6,12.6,10.6z M12.1,10.8C12.1,10.8,12.1,10.8,12.1,10.8C12.1,10.8,12.1,10.8,12.1,10.8
		C12.1,10.8,12.1,10.8,12.1,10.8C12.1,10.8,12.1,10.8,12.1,10.8z M8.7,12.5C8.7,12.5,8.7,12.6,8.7,12.5C8.6,12.6,8.6,12.6,8.7,12.5
		C8.6,12.5,8.7,12.5,8.7,12.5z M8.7,12.5C8.8,12.5,8.8,12.5,8.7,12.5C8.7,12.5,8.7,12.5,8.7,12.5C8.7,12.5,8.7,12.5,8.7,12.5z
		 M8.7,12.5C8.8,12.5,8.8,12.4,8.7,12.5C8.8,12.4,8.8,12.4,8.7,12.5C8.8,12.4,8.8,12.5,8.7,12.5C8.8,12.5,8.8,12.5,8.7,12.5
		C8.8,12.5,8.8,12.5,8.7,12.5z M8.8,12.4C8.8,12.4,8.8,12.4,8.8,12.4C8.8,12.4,8.8,12.4,8.8,12.4C8.8,12.4,8.8,12.4,8.8,12.4z
		 M9,12.4C9,12.4,9,12.4,9,12.4C9,12.4,9,12.4,9,12.4z M9.1,12.4C9.1,12.4,9.1,12.4,9.1,12.4C9.1,12.4,9.1,12.4,9.1,12.4
		C9.1,12.4,9.1,12.4,9.1,12.4C9.1,12.4,9.1,12.4,9.1,12.4z M9.2,12.2C9.2,12.2,9.2,12.2,9.2,12.2C9.2,12.3,9.2,12.3,9.2,12.2
		c0,0.1-0.1,0.1-0.1,0.1C9.1,12.2,9.2,12.2,9.2,12.2z M9.5,12C9.5,12,9.5,12,9.5,12c0,0-0.1,0-0.1,0c0,0,0,0,0,0
		C9.5,12,9.5,12,9.5,12z M9.8,12.2C9.8,12.2,9.8,12.2,9.8,12.2C9.7,12.2,9.7,12.2,9.8,12.2C9.7,12.2,9.7,12.2,9.8,12.2
		C9.7,12.2,9.7,12.2,9.8,12.2z M9.9,12.1C9.9,12.1,9.9,12.1,9.9,12.1C9.9,12.1,9.8,12.1,9.9,12.1C9.8,12.1,9.8,12.1,9.9,12.1
		C9.8,12.1,9.9,12.1,9.9,12.1z M15.1,7.7C15.1,7.7,15.1,7.7,15.1,7.7C15,7.7,15,7.7,15.1,7.7C15,7.7,15,7.7,15.1,7.7
		C15.1,7.7,15.1,7.7,15.1,7.7z M12.9,10.5C12.9,10.5,12.9,10.5,12.9,10.5C12.9,10.5,12.9,10.5,12.9,10.5z M13.1,9.5
		C13.1,9.5,13.1,9.5,13.1,9.5C13.1,9.5,13.1,9.5,13.1,9.5C13.1,9.5,13.1,9.4,13.1,9.5C13.1,9.5,13.1,9.5,13.1,9.5z M13,9.5
		C13,9.5,13,9.5,13,9.5C13,9.5,13,9.5,13,9.5C13,9.5,13,9.5,13,9.5C13,9.5,13,9.5,13,9.5C13,9.5,13,9.5,13,9.5z M13.3,8
		C13.3,8,13.3,8,13.3,8L13.3,8L13.3,8z M12,9.9C12,9.9,12,9.9,12,9.9C12.1,9.9,12.1,9.9,12,9.9C12,9.9,12,9.9,12,9.9z M12.7,10.6
		C12.7,10.6,12.6,10.6,12.7,10.6C12.6,10.6,12.6,10.6,12.7,10.6z M12.7,10.6C12.7,10.6,12.7,10.6,12.7,10.6
		C12.7,10.6,12.7,10.6,12.7,10.6C12.7,10.6,12.7,10.6,12.7,10.6z M12.9,10.7c0,0-0.1,0-0.1,0C12.8,10.7,12.8,10.7,12.9,10.7z
		 M13.1,10.7C13.1,10.7,13.1,10.7,13.1,10.7C13.1,10.7,13.1,10.7,13.1,10.7C13.1,10.7,13.1,10.7,13.1,10.7
		C13.1,10.7,13.1,10.7,13.1,10.7z M13.2,10.8C13.2,10.8,13.2,10.8,13.2,10.8C13.2,10.8,13.2,10.8,13.2,10.8
		C13.1,10.8,13.2,10.8,13.2,10.8z M13.4,10.6c0.1,0,0.1,0,0.2-0.1c0,0,0,0,0,0c0,0,0,0,0,0c-0.1,0-0.2,0.1-0.2,0.1c0,0-0.1,0-0.1,0
		C13.3,10.7,13.3,10.6,13.4,10.6z M13.5,10.3C13.6,10.3,13.6,10.2,13.5,10.3C13.6,10.2,13.6,10.3,13.5,10.3
		C13.6,10.3,13.6,10.3,13.5,10.3C13.6,10.3,13.5,10.3,13.5,10.3z M13.7,10.2C13.7,10.2,13.7,10.2,13.7,10.2
		C13.7,10.2,13.7,10.2,13.7,10.2z M13.8,10.5C13.8,10.5,13.7,10.5,13.8,10.5C13.7,10.5,13.8,10.5,13.8,10.5z M14.1,10.4
		C14,10.4,14,10.4,14.1,10.4C14,10.4,14,10.4,14.1,10.4C14,10.4,14,10.4,14.1,10.4z M14.2,10.4C14.2,10.4,14.2,10.4,14.2,10.4
		C14.2,10.4,14.2,10.4,14.2,10.4C14.1,10.4,14.1,10.4,14.2,10.4C14.2,10.4,14.2,10.4,14.2,10.4z M14.8,8.1
		C14.8,8.1,14.8,8.1,14.8,8.1C14.8,8.1,14.8,8.1,14.8,8.1C14.8,8.1,14.8,8.1,14.8,8.1z M15.3,7.8C15.3,7.8,15.3,7.8,15.3,7.8
		C15.3,7.8,15.3,7.9,15.3,7.8C15.3,7.9,15.3,7.9,15.3,7.8C15.3,7.9,15.3,7.9,15.3,7.8z M15.4,8.2c0,0,0.1,0,0.1,0c0,0,0,0,0,0
		C15.5,8.2,15.4,8.2,15.4,8.2C15.4,8.2,15.4,8.2,15.4,8.2z M15.5,8.1c0,0-0.1,0-0.1,0C15.4,8.1,15.4,8.1,15.5,8.1
		C15.5,8.1,15.5,8.1,15.5,8.1C15.6,8,15.6,8,15.6,8c0,0,0,0,0,0C15.7,8,15.8,8,15.9,8c0,0-0.1,0.1-0.1,0.1c0,0,0,0,0,0
		c0,0-0.1,0-0.1,0c0,0,0,0,0,0C15.6,8.1,15.5,8.1,15.5,8.1z M16.3,7.8C16.3,7.8,16.3,7.8,16.3,7.8C16.3,7.8,16.3,7.8,16.3,7.8
		C16.3,7.8,16.3,7.8,16.3,7.8z M16.3,7.9C16.3,7.9,16.3,7.9,16.3,7.9C16.3,7.9,16.3,7.9,16.3,7.9C16.3,7.9,16.3,7.9,16.3,7.9z
		 M16.3,7.7C16.3,7.7,16.3,7.7,16.3,7.7C16.3,7.7,16.3,7.7,16.3,7.7C16.3,7.6,16.4,7.6,16.3,7.7C16.3,7.7,16.3,7.7,16.3,7.7z
		 M16.1,7.4C16.1,7.4,16.1,7.4,16.1,7.4C16.1,7.4,16.1,7.4,16.1,7.4C16.1,7.4,16.1,7.4,16.1,7.4C16.1,7.4,16.1,7.4,16.1,7.4z
		 M15.3,7.8C15.3,7.8,15.3,7.8,15.3,7.8C15.3,7.8,15.3,7.8,15.3,7.8C15.3,7.8,15.3,7.8,15.3,7.8C15.3,7.8,15.3,7.8,15.3,7.8z
		 M5.7,13.5C5.7,13.5,5.7,13.5,5.7,13.5C5.7,13.5,5.7,13.5,5.7,13.5C5.7,13.5,5.7,13.5,5.7,13.5C5.7,13.5,5.7,13.5,5.7,13.5z
		 M5.8,13.3C5.8,13.3,5.8,13.3,5.8,13.3C5.8,13.3,5.8,13.3,5.8,13.3C5.8,13.3,5.8,13.3,5.8,13.3z M5.9,13.4
		C5.9,13.4,5.9,13.4,5.9,13.4C5.8,13.5,5.8,13.5,5.9,13.4C5.8,13.5,5.8,13.5,5.9,13.4C5.8,13.4,5.8,13.4,5.9,13.4z M7.2,13.1
		C7.2,13.2,7.2,13.2,7.2,13.1C7.2,13.1,7.2,13.1,7.2,13.1C7.2,13.1,7.2,13.1,7.2,13.1z M7.3,13.1C7.3,13.1,7.3,13.1,7.3,13.1
		C7.3,13.1,7.2,13.1,7.3,13.1C7.2,13.1,7.3,13.1,7.3,13.1z M7.3,13.2C7.3,13.2,7.3,13.2,7.3,13.2C7.3,13.2,7.3,13.2,7.3,13.2z
		 M7.6,13.2C7.5,13.3,7.5,13.3,7.6,13.2C7.5,13.3,7.5,13.3,7.6,13.2C7.5,13.2,7.5,13.2,7.6,13.2C7.6,13.2,7.6,13.2,7.6,13.2z
		 M7.7,12.9C7.7,12.9,7.7,12.9,7.7,12.9C7.7,12.9,7.7,12.9,7.7,12.9C7.7,12.9,7.7,12.9,7.7,12.9C7.7,12.9,7.7,12.9,7.7,12.9z
		 M7.7,13.1C7.7,13.2,7.7,13.2,7.7,13.1C7.7,13.2,7.7,13.2,7.7,13.1C7.7,13.2,7.7,13.2,7.7,13.1C7.7,13.2,7.7,13.2,7.7,13.1z
		 M7.9,12.9C7.9,12.9,7.9,13,7.9,12.9c-0.1,0-0.1,0.1-0.1,0.1c0,0,0,0,0,0C7.9,12.9,7.9,12.9,7.9,12.9z M7.9,12.8
		C7.9,12.8,7.9,12.8,7.9,12.8C7.9,12.8,7.9,12.8,7.9,12.8C7.9,12.8,7.9,12.8,7.9,12.8C7.9,12.8,7.9,12.8,7.9,12.8z M7.9,13.1
		C7.9,13.2,7.9,13.2,7.9,13.1C7.9,13.2,7.9,13.1,7.9,13.1z M8.3,12.7c0,0,0.1,0,0.1-0.1C8.4,12.7,8.3,12.7,8.3,12.7z M8.3,12.6
		c0,0,0.1,0,0.1-0.1c0,0,0,0,0,0c0,0,0.1,0,0.1,0c-0.1,0-0.1,0-0.2,0.1C8.4,12.6,8.4,12.6,8.3,12.6z M8.6,12.6
		C8.6,12.6,8.5,12.6,8.6,12.6C8.5,12.6,8.5,12.6,8.6,12.6C8.5,12.6,8.5,12.6,8.6,12.6C8.6,12.6,8.6,12.6,8.6,12.6z M8.5,12.9
		C8.5,13,8.5,13,8.5,12.9C8.5,12.9,8.5,12.9,8.5,12.9z M8.7,13C8.6,13,8.6,13,8.7,13C8.6,13,8.6,13,8.7,13C8.6,13,8.7,13,8.7,13
		c0,0.1-0.1,0.1-0.2,0.1C8.5,13,8.6,13,8.7,13z M9.6,12.6C9.6,12.6,9.7,12.6,9.6,12.6c0.1,0,0.1-0.1,0.2-0.1c0,0,0.1,0,0.1,0
		c0,0,0,0.1,0,0.1c0,0,0,0-0.1,0c0,0,0,0,0,0.1C9.7,12.6,9.6,12.6,9.6,12.6c-0.1,0.1-0.1,0.1-0.2,0.1C9.5,12.7,9.6,12.6,9.6,12.6z
		 M10.8,12c0,0,0,0.1-0.1,0.1c0,0,0,0,0,0C10.7,12,10.7,12,10.8,12z M11,11.8C11,11.8,11.1,11.8,11,11.8
		C11.1,11.8,11.1,11.8,11,11.8C11,11.8,11,11.8,11,11.8C11,11.8,11,11.8,11,11.8z M11.1,11.8C11.2,11.8,11.2,11.7,11.1,11.8
		C11.2,11.8,11.1,11.8,11.1,11.8C11.1,11.8,11.1,11.8,11.1,11.8z M11.2,12C11.2,12,11.2,12,11.2,12C11.2,12,11.2,12,11.2,12
		C11.2,12,11.2,12,11.2,12C11.2,12,11.2,12,11.2,12z M11.6,11C11.6,11,11.6,11,11.6,11C11.6,11,11.6,11,11.6,11
		C11.6,11,11.6,11,11.6,11z M12.4,11C12.4,11,12.4,11,12.4,11C12.4,11,12.4,11,12.4,11C12.4,11,12.4,11,12.4,11
		C12.4,11,12.4,11,12.4,11z M12.3,11.1C12.3,11.1,12.3,11.1,12.3,11.1C12.3,11.1,12.3,11,12.3,11.1C12.3,11,12.3,11,12.3,11.1
		C12.3,11,12.3,11.1,12.3,11.1z M12.2,11.3C12.2,11.3,12.2,11.3,12.2,11.3c0.1,0,0.1,0,0.1,0c0,0,0-0.1,0.1,0c0,0,0,0,0,0
		c0,0,0.1,0,0.1,0c0,0,0.1,0,0.1,0c0,0,0,0,0,0c0,0,0,0,0,0c0,0,0.1,0,0.1,0c0,0,0,0,0,0c0,0,0.1,0,0.1,0c0,0,0.1,0,0.1-0.1
		c0.1,0,0.2-0.1,0.3-0.1c0,0,0,0,0,0c0.1-0.1,0.1-0.1,0.2-0.1c0,0,0.1,0,0.1,0c0,0,0,0,0,0c0,0,0,0,0,0c0,0,0,0-0.1,0c0,0,0,0-0.1,0
		c0,0-0.1,0-0.1,0.1c-0.1,0-0.1,0-0.2,0.1c0,0-0.1,0-0.1,0.1c-0.2,0.1-0.3,0.1-0.5,0.2C12.6,11.2,12.4,11.3,12.2,11.3
		c0,0.1,0,0.1-0.1,0.1c0,0,0,0,0,0C12.1,11.3,12.1,11.3,12.2,11.3z M13.7,10.8C13.7,10.7,13.8,10.7,13.7,10.8
		c0.1-0.1,0.2-0.1,0.2-0.1c0,0,0.1,0,0.1-0.1c0,0,0.1,0,0.1,0c0,0,0,0,0,0c-0.1,0-0.1,0.1-0.2,0.1c0,0,0,0-0.1,0c0,0,0,0,0,0
		C13.8,10.8,13.8,10.8,13.7,10.8C13.8,10.7,13.8,10.8,13.7,10.8z M14.3,10.1C14.3,10,14.3,10,14.3,10.1C14.3,10,14.3,10,14.3,10.1
		C14.3,10.1,14.3,10.1,14.3,10.1C14.3,10.1,14.3,10.1,14.3,10.1z M14.3,10C14.3,10,14.3,10,14.3,10C14.3,10,14.3,10,14.3,10
		C14.3,10,14.3,10,14.3,10C14.3,10,14.3,10,14.3,10z M14.4,10.6C14.4,10.6,14.4,10.6,14.4,10.6c-0.1,0-0.1,0-0.1,0.1c0,0,0,0,0,0
		C14.3,10.6,14.4,10.6,14.4,10.6z M14.4,10C14.4,10,14.4,10,14.4,10C14.4,10,14.4,10,14.4,10z M14.5,10C14.5,10,14.5,10,14.5,10
		C14.5,10,14.5,10,14.5,10z M14.5,10.5C14.5,10.5,14.5,10.5,14.5,10.5C14.5,10.6,14.5,10.6,14.5,10.5C14.5,10.6,14.5,10.6,14.5,10.5
		C14.5,10.5,14.5,10.5,14.5,10.5z M14.6,10C14.6,9.9,14.6,9.9,14.6,10C14.6,10,14.6,10,14.6,10C14.6,10,14.6,10,14.6,10z M14.6,10.5
		C14.6,10.6,14.6,10.6,14.6,10.5C14.6,10.5,14.6,10.5,14.6,10.5z M15.6,8.2C15.6,8.2,15.6,8.2,15.6,8.2C15.7,8.2,15.7,8.2,15.6,8.2
		C15.7,8.2,15.7,8.2,15.6,8.2C15.7,8.2,15.6,8.2,15.6,8.2z M17.2,7.5C17.2,7.5,17.2,7.4,17.2,7.5C17.3,7.4,17.3,7.4,17.2,7.5
		C17.3,7.5,17.3,7.5,17.2,7.5C17.3,7.5,17.2,7.5,17.2,7.5z M17.8,7.7c0.1,0-0.1,0.1,0,0.1c-0.1,0.1-0.1,0.1-0.2,0
		C17.6,7.8,17.7,7.7,17.8,7.7z M17.6,7.6C17.6,7.6,17.7,7.6,17.6,7.6C17.7,7.6,17.7,7.6,17.6,7.6C17.7,7.6,17.6,7.6,17.6,7.6
		C17.6,7.6,17.6,7.6,17.6,7.6z M17.6,7C17.6,7,17.6,6.9,17.6,7C17.6,6.9,17.6,6.9,17.6,7C17.7,6.9,17.7,6.9,17.6,7
		C17.7,6.9,17.6,7,17.6,7z M17.5,7.8c0,0-0.1,0-0.1,0C17.4,7.8,17.4,7.8,17.5,7.8C17.5,7.8,17.5,7.8,17.5,7.8
		C17.5,7.8,17.5,7.8,17.5,7.8z M17.2,7.9C17.2,7.9,17.2,7.9,17.2,7.9c0,0.1,0,0.1,0,0.1C17.2,8,17.2,8,17.2,7.9
		C17.2,8,17.2,8,17.2,7.9C17.1,8,17.1,7.9,17.2,7.9C17.2,7.9,17.2,7.9,17.2,7.9z M16.8,8.2C16.9,8.1,16.9,8.1,16.8,8.2
		c0.1-0.1,0.1-0.1,0.1-0.1c0,0,0.1,0,0.1-0.1c0,0,0,0.1,0,0.1c0,0,0,0,0,0C17,8.1,16.9,8.1,16.8,8.2C16.9,8.1,16.9,8.1,16.8,8.2
		C16.9,8.1,16.9,8.2,16.8,8.2C16.8,8.2,16.8,8.2,16.8,8.2z M18.2,6C18.2,6,18.2,6,18.2,6C18.2,6,18.2,6,18.2,6C18.2,6,18.2,6,18.2,6
		C18.2,6,18.2,6,18.2,6z M18.2,6.6c0.1,0,0.1,0,0.2,0C18.3,6.7,18.2,6.7,18.2,6.6C18.1,6.6,18.2,6.6,18.2,6.6z M18.1,6.2
		c0,0-0.1,0-0.1,0c0,0,0,0,0,0C18.1,6.1,18.1,6.1,18.1,6.2C18.1,6.1,18.1,6.1,18.1,6.2z M18.1,6.3C18,6.3,18,6.3,18.1,6.3
		C18,6.3,18,6.3,18.1,6.3C18,6.2,18,6.2,18.1,6.3C18.1,6.2,18.1,6.2,18.1,6.3z M18.5,5.9c-0.1,0-0.1,0-0.2,0.1c0,0,0,0,0,0
		C18.4,5.9,18.5,5.9,18.5,5.9C18.5,5.9,18.5,5.9,18.5,5.9z M18.2,5.8C18.2,5.8,18.2,5.8,18.2,5.8c0.1,0.1,0.1,0,0.2,0
		c0,0.1-0.1,0.1-0.1,0.1c0,0-0.1,0-0.1,0c0,0-0.1,0-0.1,0C18.1,5.9,18.2,5.8,18.2,5.8z M18,6.1C18,6.1,18,6.1,18,6.1
		C18.1,6.1,18.1,6.1,18,6.1C18,6.1,18,6.1,18,6.1C18,6.1,18,6.1,18,6.1C18,6.1,18,6.1,18,6.1z M17.9,6.3c0,0-0.1,0.1-0.1,0.1
		c0,0-0.1,0.1-0.1,0C17.7,6.3,17.9,6.2,17.9,6.3z M17.6,7.3c0,0-0.1,0-0.1,0C17.5,7.3,17.5,7.3,17.6,7.3z M17.5,7.7
		C17.5,7.7,17.5,7.7,17.5,7.7c0,0-0.1,0.1-0.1,0.1C17.4,7.7,17.5,7.7,17.5,7.7z M17.5,6.7c-0.1,0.1-0.1,0.1-0.2,0.1
		C17.4,6.7,17.5,6.7,17.5,6.7z M17.5,6.4C17.5,6.4,17.5,6.4,17.5,6.4C17.4,6.5,17.4,6.5,17.5,6.4c-0.1,0-0.1,0-0.1,0
		C17.4,6.4,17.4,6.4,17.5,6.4z M17.3,6.9C17.3,6.9,17.3,6.9,17.3,6.9C17.3,6.9,17.3,6.9,17.3,6.9C17.3,6.9,17.3,6.9,17.3,6.9
		C17.3,6.9,17.3,6.9,17.3,6.9z M17.1,7.8C17.1,7.8,17.1,7.8,17.1,7.8C17,7.8,17,7.8,17.1,7.8C17.1,7.8,17.1,7.8,17.1,7.8
		C17.1,7.8,17.1,7.8,17.1,7.8z M17.3,6.3c-0.1,0.2-0.1,0.2-0.2,0.1c0,0,0.1,0,0.1,0c0,0,0-0.1,0-0.1c-0.1,0-0.1,0-0.1,0.1
		c0,0,0,0,0-0.1C17.1,6.3,17.2,6.3,17.3,6.3z M17.1,6.4C17.1,6.5,17,6.5,17.1,6.4C17,6.5,17,6.4,17.1,6.4z M16.7,7.9
		C16.7,7.9,16.6,7.9,16.7,7.9c-0.1,0-0.1,0-0.1,0C16.6,7.9,16.6,7.9,16.7,7.9C16.7,7.9,16.7,7.9,16.7,7.9z M16.8,6.6
		C16.8,6.6,16.8,6.5,16.8,6.6C16.8,6.5,16.8,6.5,16.8,6.6C16.8,6.6,16.8,6.6,16.8,6.6C16.8,6.6,16.8,6.6,16.8,6.6z M16.9,6.4
		c-0.1,0.1-0.2,0.1-0.2,0.1C16.7,6.5,16.8,6.4,16.9,6.4z M16.4,6.6C16.5,6.6,16.5,6.6,16.4,6.6C16.4,6.6,16.4,6.6,16.4,6.6
		C16.4,6.6,16.4,6.6,16.4,6.6C16.4,6.6,16.4,6.6,16.4,6.6z M16.6,7.2c-0.1,0.1-0.2,0.1-0.2,0.1C16.4,7.2,16.5,7.2,16.6,7.2z
		 M16.3,7.4C16.3,7.4,16.3,7.4,16.3,7.4C16.3,7.4,16.3,7.4,16.3,7.4z M16.6,5C16.6,5,16.6,5,16.6,5C16.6,5,16.6,5,16.6,5
		C16.6,5,16.6,5,16.6,5C16.6,5,16.6,5,16.6,5z M16.4,6.1C16.4,6.1,16.4,6.1,16.4,6.1C16.4,6.1,16.4,6.1,16.4,6.1
		C16.4,6.1,16.4,6.1,16.4,6.1z M16.3,6.7c0,0,0,0-0.1,0C16.3,6.7,16.3,6.7,16.3,6.7z M16.2,6.2C16.3,6.2,16.3,6.2,16.2,6.2
		C16.3,6.2,16.3,6.2,16.2,6.2c0,0,0,0.1,0,0.1C16.2,6.3,16.2,6.3,16.2,6.2C16.2,6.3,16.2,6.3,16.2,6.2C16.2,6.3,16.2,6.2,16.2,6.2
		C16.2,6.2,16.2,6.2,16.2,6.2z M16.3,5.1C16.3,5.1,16.4,5.1,16.3,5.1C16.4,5.1,16.4,5.1,16.3,5.1C16.4,5.1,16.4,5.1,16.3,5.1
		C16.3,5.1,16.3,5.1,16.3,5.1C16.3,5.1,16.3,5.1,16.3,5.1z M16.1,6.7C16.1,6.7,16.1,6.8,16.1,6.7C16.1,6.8,16.1,6.8,16.1,6.7
		C16,6.8,16,6.8,16.1,6.7C16.1,6.8,16.1,6.8,16.1,6.7z M16,7.5c-0.1,0-0.1,0-0.2,0.1C15.8,7.5,15.9,7.5,16,7.5z M15.9,7.4
		c-0.1,0.1-0.1,0.1-0.2,0.1C15.8,7.5,15.8,7.4,15.9,7.4z M15.7,7.4C15.7,7.4,15.7,7.4,15.7,7.4C15.7,7.5,15.7,7.5,15.7,7.4
		C15.7,7.5,15.7,7.5,15.7,7.4C15.7,7.5,15.7,7.4,15.7,7.4z M15.5,7.6c-0.1,0-0.1,0.1-0.1,0.1c0,0,0,0-0.1,0c0,0-0.1,0-0.1,0
		c0,0,0,0,0,0c0,0,0,0,0,0c0,0,0,0,0-0.1C15.3,7.7,15.4,7.5,15.5,7.6z M15.1,4.5C15.2,4.5,15.2,4.5,15.1,4.5c0.1,0,0.1,0,0.1,0
		C15.2,4.6,15.2,4.6,15.1,4.5C15.1,4.5,15.1,4.5,15.1,4.5z M15,5c0,0-0.1,0-0.1,0C14.9,5,14.9,5,15,5z M14.8,3.9
		C14.8,3.9,14.8,3.9,14.8,3.9C14.8,3.9,14.8,3.9,14.8,3.9c0.1,0,0.2,0,0.2-0.1C14.9,3.9,14.8,3.9,14.8,3.9
		C14.8,3.9,14.8,3.9,14.8,3.9z M14.7,4C14.6,4,14.6,4,14.7,4C14.6,4,14.6,4,14.7,4C14.6,4,14.7,4,14.7,4z M14.8,2.6
		C14.8,2.6,14.8,2.6,14.8,2.6C14.9,2.6,14.8,2.6,14.8,2.6z M15,2.3C15,2.3,15,2.3,15,2.3C15,2.3,15,2.3,15,2.3C15,2.3,15,2.3,15,2.3
		C15,2.3,15,2.3,15,2.3z M15,2.5C15,2.6,15,2.6,15,2.5C15,2.5,15,2.5,15,2.5z M14.9,2.1C14.9,2.1,15,2.1,14.9,2.1
		C15,2.1,15,2.1,14.9,2.1C14.9,2.1,14.9,2.1,14.9,2.1C14.9,2.2,14.8,2.2,14.9,2.1C14.8,2.1,14.9,2.1,14.9,2.1z M14.8,2.2
		C14.9,2.2,14.9,2.2,14.8,2.2C14.9,2.2,14.9,2.2,14.8,2.2C14.9,2.3,14.9,2.3,14.8,2.2C14.8,2.3,14.9,2.3,14.8,2.2
		C14.9,2.2,14.8,2.2,14.8,2.2z M14.9,2.3C14.9,2.4,14.9,2.4,14.9,2.3c-0.1,0-0.1,0-0.1,0.1c0,0,0,0-0.1,0
		C14.8,2.3,14.9,2.3,14.9,2.3z M14.7,2.4C14.7,2.4,14.7,2.4,14.7,2.4C14.7,2.4,14.7,2.4,14.7,2.4C14.7,2.4,14.7,2.4,14.7,2.4z
		 M14.7,2.6C14.7,2.6,14.7,2.7,14.7,2.6C14.7,2.7,14.7,2.7,14.7,2.6C14.7,2.7,14.7,2.7,14.7,2.6C14.7,2.7,14.7,2.6,14.7,2.6z
		 M14.5,4C14.5,4,14.5,4.1,14.5,4c0,0.1-0.1,0.1-0.1,0.1C14.4,4.1,14.4,4.1,14.5,4z M14.6,2.6C14.6,2.6,14.5,2.6,14.6,2.6
		C14.5,2.6,14.5,2.5,14.6,2.6z M14.5,2.6C14.5,2.6,14.5,2.6,14.5,2.6C14.5,2.6,14.5,2.6,14.5,2.6C14.5,2.6,14.5,2.6,14.5,2.6z
		 M14.5,2.7C14.5,2.7,14.5,2.7,14.5,2.7C14.5,2.7,14.5,2.7,14.5,2.7c0,0.1-0.1,0.1-0.1,0.1c0,0,0,0,0,0C14.4,2.7,14.5,2.7,14.5,2.7z
		 M14.4,2.7C14.4,2.7,14.4,2.7,14.4,2.7C14.4,2.6,14.4,2.6,14.4,2.7z M14.1,2.7C14.1,2.7,14.1,2.7,14.1,2.7c0.1-0.1,0.2-0.1,0.2-0.1
		c0,0,0,0,0,0C14.2,2.7,14.1,2.7,14.1,2.7c-0.1,0.1-0.1,0-0.1,0C14,2.7,14,2.7,14.1,2.7z M13.9,2.8c0,0.1-0.1,0.1-0.1,0.1
		C13.8,2.8,13.8,2.8,13.9,2.8z M13.5,2.9c0,0,0,0,0.1,0C13.6,2.9,13.5,2.9,13.5,2.9z M13.7,1.5C13.7,1.5,13.7,1.5,13.7,1.5
		C13.7,1.5,13.7,1.5,13.7,1.5C13.6,1.5,13.6,1.5,13.7,1.5C13.7,1.5,13.7,1.5,13.7,1.5z M13.6,1.5C13.6,1.5,13.6,1.5,13.6,1.5
		C13.6,1.5,13.6,1.5,13.6,1.5C13.6,1.5,13.6,1.5,13.6,1.5C13.6,1.5,13.6,1.5,13.6,1.5z M13.5,1.5C13.5,1.5,13.5,1.5,13.5,1.5
		C13.5,1.5,13.5,1.5,13.5,1.5C13.5,1.5,13.5,1.5,13.5,1.5C13.5,1.5,13.5,1.5,13.5,1.5z M13.2,2.9C13.2,2.9,13.2,2.9,13.2,2.9
		C13.2,2.9,13.2,2.9,13.2,2.9C13.2,2.9,13.2,2.9,13.2,2.9C13.2,2.9,13.2,2.9,13.2,2.9z M13.1,2.9C13.1,3,13.1,3,13.1,2.9
		C13.1,2.9,13.1,2.9,13.1,2.9z M12.8,3C12.8,3,12.9,3,12.8,3C12.8,3,12.8,3,12.8,3C12.8,3.1,12.8,3,12.8,3C12.8,3,12.8,3,12.8,3z
		 M10.3,1.5C10.3,1.5,10.3,1.5,10.3,1.5c0,0.1,0,0.1-0.1,0.1C10.2,1.5,10.3,1.5,10.3,1.5z M10,1.6C10,1.6,10.1,1.6,10,1.6
		C10,1.7,10,1.7,10,1.6C10,1.6,10,1.6,10,1.6z M9.8,1.7C9.8,1.7,9.8,1.7,9.8,1.7C9.8,1.7,9.8,1.8,9.8,1.7C9.8,1.7,9.8,1.7,9.8,1.7z
		 M9.7,1.8C9.7,1.8,9.7,1.8,9.7,1.8C9.7,1.8,9.7,1.8,9.7,1.8C9.7,1.8,9.7,1.8,9.7,1.8C9.7,1.8,9.7,1.8,9.7,1.8
		C9.7,1.8,9.7,1.8,9.7,1.8z M9.2,2C9.2,2,9.2,2,9.2,2C9.2,2,9.2,2,9.2,2C9.1,2,9.1,2,9.2,2C9.2,2,9.2,2,9.2,2z M9,2C9,2.1,9,2.1,9,2
		C9,2.1,9,2,9,2z M8.9,2.1c0,0-0.1,0-0.1,0.1C8.8,2.1,8.8,2.1,8.9,2.1z M8.4,2.3C8.5,2.3,8.5,2.3,8.4,2.3C8.5,2.3,8.5,2.3,8.4,2.3
		C8.4,2.3,8.4,2.3,8.4,2.3C8.4,2.3,8.4,2.3,8.4,2.3z M5.6,11.6C5.6,11.6,5.6,11.6,5.6,11.6C5.6,11.6,5.6,11.6,5.6,11.6
		C5.6,11.6,5.6,11.6,5.6,11.6C5.6,11.6,5.6,11.6,5.6,11.6C5.6,11.6,5.6,11.6,5.6,11.6C5.5,11.6,5.6,11.6,5.6,11.6z M5.5,11.8
		c0,0,0.1-0.1,0.1,0C5.6,11.8,5.6,11.8,5.5,11.8c0,0-0.1,0.1-0.1,0.1c0,0,0,0,0,0C5.4,11.8,5.5,11.9,5.5,11.8z M5.3,11.6
		C5.4,11.6,5.4,11.6,5.3,11.6C5.4,11.6,5.4,11.6,5.3,11.6C5.4,11.6,5.4,11.7,5.3,11.6C5.4,11.7,5.4,11.7,5.3,11.6
		C5.3,11.7,5.3,11.7,5.3,11.6C5.3,11.6,5.3,11.6,5.3,11.6z M5.3,11.8C5.3,11.9,5.3,11.8,5.3,11.8C5.3,11.8,5.3,11.8,5.3,11.8z
		 M5.2,11.8C5.2,11.8,5.2,11.8,5.2,11.8c0.1,0,0.1,0.1,0.1,0.1C5.2,11.9,5.1,11.9,5.2,11.8C5.1,11.8,5.1,11.8,5.2,11.8z M5,12
		C4.9,12.1,4.9,12,5,12C4.9,12,4.9,12,5,12z M4.9,12c0,0-0.1,0-0.1,0.1c0,0,0,0,0,0C4.8,12,4.8,12,4.9,12z M4.5,12.3
		c-0.1,0.1-0.1,0.1-0.2,0.1c-0.1,0-0.1,0-0.2,0c0,0,0,0-0.1,0C4.2,12.3,4.2,12.3,4.5,12.3z M3.6,12.9C3.6,12.9,3.6,12.9,3.6,12.9
		C3.7,12.8,3.7,12.8,3.6,12.9C3.7,12.8,3.7,12.8,3.6,12.9z M3.7,12.8C3.7,12.8,3.7,12.8,3.7,12.8C3.8,12.8,3.8,12.8,3.7,12.8z
		 M3.8,12.7c0-0.1,0.1-0.1,0.2-0.1C3.9,12.6,3.8,12.6,3.8,12.7z M4,11.9C4,11.9,4,11.9,4,11.9C4,11.9,4,11.8,4,11.9
		C4,11.8,4,11.8,4,11.9C4.1,11.9,4,11.9,4,11.9z M4,13.1C4,13.1,4,13.1,4,13.1C4,13.1,4,13.1,4,13.1C4,13.1,4,13.1,4,13.1
		C4,13.1,4,13.1,4,13.1z M4.1,13.2C4.1,13.2,4.1,13.2,4.1,13.2C4.2,13.2,4.2,13.2,4.1,13.2C4.1,13.2,4.1,13.2,4.1,13.2z M4.3,13.6
		C4.3,13.6,4.3,13.6,4.3,13.6C4.3,13.6,4.3,13.6,4.3,13.6C4.3,13.6,4.3,13.6,4.3,13.6C4.3,13.6,4.3,13.6,4.3,13.6z M4.4,13.7
		c0,0,0.1,0,0.1-0.1c0,0,0,0,0,0C4.5,13.6,4.5,13.6,4.4,13.7C4.4,13.7,4.4,13.7,4.4,13.7C4.4,13.7,4.4,13.7,4.4,13.7
		C4.4,13.7,4.4,13.7,4.4,13.7z M4.5,13.8C4.5,13.8,4.5,13.7,4.5,13.8C4.5,13.7,4.5,13.7,4.5,13.8C4.5,13.8,4.5,13.8,4.5,13.8
		C4.5,13.8,4.5,13.8,4.5,13.8z M4.5,13.9c0.1-0.1,0.1-0.1,0.2-0.1c0,0,0,0,0,0C4.6,13.8,4.6,13.9,4.5,13.9z M5.4,13.8
		C5.4,13.8,5.4,13.8,5.4,13.8C5.4,13.8,5.4,13.8,5.4,13.8C5.4,13.8,5.4,13.8,5.4,13.8C5.4,13.8,5.4,13.8,5.4,13.8z M5.5,13.7
		C5.5,13.7,5.5,13.7,5.5,13.7C5.5,13.7,5.5,13.7,5.5,13.7C5.6,13.7,5.6,13.7,5.5,13.7C5.5,13.7,5.5,13.7,5.5,13.7z M5.9,13.5
		C5.9,13.6,5.9,13.6,5.9,13.5c-0.1,0.1-0.2,0.1-0.3,0.1C5.7,13.6,5.8,13.6,5.9,13.5C5.8,13.5,5.9,13.5,5.9,13.5
		C5.9,13.5,5.9,13.5,5.9,13.5C5.9,13.5,5.9,13.5,5.9,13.5z M6.6,13.8C6.6,13.8,6.6,13.8,6.6,13.8C6.6,13.8,6.6,13.8,6.6,13.8
		C6.6,13.8,6.6,13.8,6.6,13.8C6.6,13.8,6.6,13.8,6.6,13.8z M6.7,13.8C6.7,13.8,6.6,13.8,6.7,13.8c0.1,0,0.1-0.1,0.2-0.1
		C6.8,13.8,6.7,13.8,6.7,13.8z M6.9,13.3C6.9,13.3,6.9,13.3,6.9,13.3C6.9,13.2,6.9,13.2,6.9,13.3C6.9,13.2,6.9,13.2,6.9,13.3
		C6.9,13.3,6.9,13.3,6.9,13.3z M7.1,13.7C7.1,13.6,7.1,13.6,7.1,13.7c0.1-0.1,0.1-0.1,0.2-0.1c0.1,0,0.1,0,0.2-0.1c0,0,0,0,0,0
		c0,0,0.1,0,0.1,0c0,0,0.1,0,0.1,0c0,0,0,0,0,0c0.1,0,0.1,0.1,0.2,0c0,0.1,0,0.1,0.1,0.1c0,0-0.1,0-0.1,0c0,0-0.1,0-0.1,0.1
		c0-0.1,0.1-0.1,0.1-0.1c-0.1,0-0.1,0-0.2,0.1c-0.1,0-0.1,0.1-0.2,0.1c0,0,0,0,0,0c0,0-0.1,0.1-0.1,0.1C7.3,13.7,7.2,13.7,7.1,13.7
		C7.2,13.7,7.2,13.7,7.1,13.7C7.1,13.7,7.1,13.7,7.1,13.7C7.1,13.7,7.1,13.7,7.1,13.7z M7.7,13.6C7.7,13.6,7.7,13.6,7.7,13.6
		C7.7,13.6,7.7,13.6,7.7,13.6C7.7,13.6,7.7,13.6,7.7,13.6C7.7,13.6,7.7,13.6,7.7,13.6z M7.6,13.6C7.6,13.6,7.6,13.6,7.6,13.6
		C7.6,13.6,7.6,13.6,7.6,13.6C7.6,13.6,7.6,13.6,7.6,13.6C7.6,13.6,7.6,13.6,7.6,13.6z M7.2,14.1C7.2,14.1,7.2,14.1,7.2,14.1
		C7.2,14.1,7.2,14.1,7.2,14.1C7.2,14.1,7.2,14.1,7.2,14.1C7.2,14.1,7.2,14.1,7.2,14.1z M7.1,14C7.1,14,7.1,14,7.1,14
		c0.2-0.1,0.4-0.2,0.5-0.2c0,0,0,0,0,0C7.4,13.9,7.2,14,7.1,14z M7.4,14c0.1-0.1,0.3-0.1,0.4-0.2C7.7,13.9,7.5,14,7.4,14z M7.9,13.9
		C7.9,13.9,7.9,13.9,7.9,13.9C7.9,13.9,7.8,13.9,7.9,13.9C7.8,13.9,7.8,13.9,7.9,13.9C7.8,13.9,7.9,13.9,7.9,13.9z M10.1,12.7
		c0,0-0.1,0-0.1,0.1c0,0,0,0-0.1,0c0,0,0,0-0.1,0c0,0.1-0.1,0.1-0.2,0.1C9.5,13,9.3,13,9.2,13.1c-0.3,0.1-0.5,0.2-0.8,0.4
		c-0.1,0.1-0.3,0.1-0.4,0.2c-0.1,0.1-0.3,0.1-0.4,0.2c0,0,0.1,0,0.1-0.1c0,0,0,0,0-0.1c0,0,0.1,0,0.1,0c0,0,0,0,0,0
		c0.1,0,0.1-0.1,0.2-0.1c0,0,0,0,0,0c0,0,0.1,0,0.1,0c0,0,0,0,0-0.1c0,0,0,0,0,0c0,0,0.1,0,0.1,0c0.1,0,0.1-0.1,0.2-0.1
		c0,0,0.1,0,0.1,0c0,0,0-0.1,0,0c0,0,0,0,0,0c0,0,0,0,0.1,0c0,0,0,0,0-0.1c0.1,0,0.1,0,0.1,0c0.1,0,0.1-0.1,0.2-0.1
		C9.2,13,9.3,13,9.3,13c0,0,0,0,0.1,0c0,0,0.1-0.1,0.1,0c0,0,0,0,0-0.1c0,0,0.1,0,0.1,0c0.1,0,0.1-0.1,0.2-0.1
		C9.9,12.7,10,12.7,10.1,12.7C10.1,12.6,10.1,12.6,10.1,12.7C10.1,12.6,10.1,12.7,10.1,12.7z M10.2,11.6
		C10.2,11.6,10.2,11.6,10.2,11.6C10.2,11.6,10.2,11.6,10.2,11.6C10.2,11.6,10.2,11.6,10.2,11.6C10.2,11.6,10.2,11.6,10.2,11.6z
		 M10.4,12.5C10.4,12.5,10.4,12.5,10.4,12.5C10.4,12.4,10.4,12.4,10.4,12.5C10.4,12.4,10.4,12.4,10.4,12.5
		C10.4,12.5,10.4,12.5,10.4,12.5z M10.5,12.2C10.5,12.2,10.5,12.2,10.5,12.2C10.5,12.2,10.5,12.2,10.5,12.2
		C10.5,12.2,10.5,12.2,10.5,12.2C10.5,12.2,10.5,12.2,10.5,12.2z M10.4,12.4c0,0,0.1,0,0.1-0.1l0,0c0,0,0.1,0,0.1,0
		C10.6,12.4,10.5,12.4,10.4,12.4z M10.7,12.3C10.7,12.3,10.7,12.3,10.7,12.3C10.7,12.3,10.7,12.3,10.7,12.3
		C10.7,12.3,10.7,12.3,10.7,12.3z M10.8,12C10.8,12,10.8,12,10.8,12C10.8,11.9,10.8,11.9,10.8,12C10.8,11.9,10.8,11.9,10.8,12
		C10.8,12,10.8,12,10.8,12z M10.9,11.9c0-0.1,0.1,0,0.1-0.1C11,11.9,11,11.9,10.9,11.9z M11,12.1C11,12.1,11,12.1,11,12.1
		C11.1,12.1,11.1,12.1,11,12.1z M11,12.2C11,12.2,11,12.2,11,12.2C11,12.1,11,12.1,11,12.2C11.1,12.1,11.1,12.1,11,12.2
		C11.1,12.2,11,12.2,11,12.2z M11.1,12.1C11.1,12.1,11.2,12.1,11.1,12.1C11.2,12.1,11.2,12.1,11.1,12.1z M11.3,11.8
		C11.3,11.7,11.3,11.7,11.3,11.8C11.3,11.7,11.3,11.7,11.3,11.8C11.3,11.7,11.3,11.7,11.3,11.8C11.3,11.7,11.3,11.7,11.3,11.8z
		 M11.4,11.7C11.4,11.7,11.4,11.7,11.4,11.7C11.4,11.7,11.4,11.6,11.4,11.7C11.4,11.6,11.4,11.6,11.4,11.7
		C11.4,11.7,11.4,11.7,11.4,11.7z M11.5,11.2C11.5,11.2,11.5,11.2,11.5,11.2C11.5,11.2,11.5,11.2,11.5,11.2
		C11.5,11.2,11.5,11.2,11.5,11.2z M11.5,11.3C11.6,11.3,11.6,11.3,11.5,11.3C11.6,11.3,11.6,11.3,11.5,11.3
		C11.6,11.3,11.6,11.3,11.5,11.3C11.5,11.3,11.5,11.3,11.5,11.3z M11.5,11.6C11.5,11.6,11.5,11.6,11.5,11.6
		C11.6,11.6,11.6,11.6,11.5,11.6C11.6,11.6,11.6,11.6,11.5,11.6C11.6,11.6,11.6,11.6,11.5,11.6z M11.7,11.3
		C11.7,11.3,11.7,11.3,11.7,11.3c0.1-0.1,0.1-0.1,0.2-0.1C11.8,11.2,11.8,11.2,11.7,11.3z M11.8,11.7C11.8,11.7,11.8,11.7,11.8,11.7
		C11.8,11.7,11.8,11.7,11.8,11.7C11.8,11.7,11.8,11.7,11.8,11.7C11.8,11.7,11.8,11.7,11.8,11.7z M11.8,11.6
		C11.8,11.6,11.8,11.6,11.8,11.6C11.8,11.6,11.8,11.6,11.8,11.6C11.8,11.6,11.8,11.6,11.8,11.6C11.8,11.6,11.8,11.6,11.8,11.6z
		 M11.8,11.7C11.8,11.7,11.8,11.7,11.8,11.7C11.8,11.7,11.8,11.7,11.8,11.7C11.8,11.7,11.8,11.7,11.8,11.7
		C11.8,11.7,11.8,11.7,11.8,11.7z M11.9,11.4C11.9,11.4,11.9,11.4,11.9,11.4C12,11.4,12,11.4,11.9,11.4C12,11.4,11.9,11.4,11.9,11.4
		C11.9,11.4,11.9,11.4,11.9,11.4z M12.1,11.6C12.1,11.6,12.1,11.6,12.1,11.6C12.1,11.6,12.1,11.6,12.1,11.6
		C12.1,11.6,12.1,11.6,12.1,11.6C12.1,11.6,12.1,11.6,12.1,11.6z M12.2,11.5c0,0-0.1,0.1-0.1,0.1c0,0-0.1,0-0.1,0
		C12,11.5,12,11.5,12.2,11.5c0,0,0.1-0.1,0.1-0.1C12.3,11.5,12.2,11.4,12.2,11.5z M12.9,11.3C12.9,11.3,12.9,11.3,12.9,11.3
		C12.9,11.3,12.9,11.3,12.9,11.3C12.9,11.3,12.9,11.3,12.9,11.3z M14.8,10.6c-0.1,0-0.2,0.1-0.3,0.1c0,0-0.1,0-0.1,0c0,0,0,0-0.1,0
		c0,0,0,0,0,0c0,0-0.1,0-0.1,0c0,0,0,0,0,0c0,0,0,0,0,0c0,0,0,0.1-0.1,0c0,0-0.1,0-0.1,0.1c0,0,0,0.1,0,0.1c0,0,0-0.1,0-0.1
		c-0.1,0-0.1,0.1-0.1,0.1c0,0,0,0,0,0c0,0-0.1,0-0.1,0.1c0,0,0,0-0.1,0c0,0,0,0,0,0c0,0-0.1,0.1-0.1,0c0,0-0.1,0-0.1,0c0,0,0,0,0,0
		c0,0,0,0-0.1,0c-0.1,0-0.1,0-0.2,0.1c0,0-0.1,0.1-0.2,0c0,0,0,0,0,0c-0.1,0-0.1,0.1-0.2,0.1c0,0,0,0-0.1,0c0,0,0,0,0,0
		c0,0.1-0.1,0-0.1,0c0,0,0,0,0,0c0,0.1-0.1,0.1-0.1,0.1c0,0,0,0,0,0c0,0,0.1,0,0.1,0c0,0,0,0,0,0c-0.1,0-0.1,0-0.2,0.1
		c0,0,0,0-0.1,0c0,0,0,0-0.1,0c0,0,0,0,0,0c0,0,0.1,0,0.1,0c0.1,0,0.1,0,0.2-0.1c0.1,0,0.2-0.1,0.3-0.1c0,0,0.1,0,0.1,0c0,0,0,0,0,0
		c0,0,0.1,0,0.1,0c0,0,0.1,0,0.1,0c0,0,0,0,0.1,0c0,0,0.1,0,0.1,0c0,0,0,0,0.1,0c0,0,0.1,0,0.1,0c0,0,0,0,0.1,0c0.1,0,0.1,0,0.2,0
		c0,0,0.1,0,0.1,0c0.2-0.1,0.4-0.1,0.6-0.2C14.7,10.6,14.8,10.6,14.8,10.6C14.8,10.6,14.8,10.6,14.8,10.6
		C14.8,10.6,14.8,10.6,14.8,10.6z M14.9,10.5C14.9,10.5,14.9,10.5,14.9,10.5C14.9,10.5,14.9,10.5,14.9,10.5
		C14.9,10.5,14.9,10.5,14.9,10.5C14.9,10.5,14.9,10.5,14.9,10.5z M14.9,10.5C14.9,10.5,14.9,10.5,14.9,10.5
		C14.9,10.5,14.9,10.4,14.9,10.5C14.9,10.4,14.9,10.4,14.9,10.5C14.9,10.5,14.9,10.5,14.9,10.5z M15,10.5c0-0.1,0-0.1,0.1,0
		C15.1,10.4,15.1,10.4,15,10.5z M15.2,10.4C15.2,10.4,15.2,10.4,15.2,10.4C15.2,10.4,15.3,10.4,15.2,10.4
		C15.3,10.4,15.3,10.4,15.2,10.4C15.3,10.4,15.2,10.4,15.2,10.4z M15.3,10.2C15.3,10.2,15.3,10.2,15.3,10.2
		C15.3,10.2,15.3,10.2,15.3,10.2C15.4,10.2,15.4,10.2,15.3,10.2C15.3,10.2,15.3,10.2,15.3,10.2z M15.4,10.4
		C15.4,10.4,15.4,10.4,15.4,10.4C15.4,10.4,15.4,10.4,15.4,10.4C15.4,10.4,15.4,10.4,15.4,10.4C15.4,10.4,15.4,10.4,15.4,10.4z
		 M15.5,10.1C15.5,10.1,15.5,10.1,15.5,10.1C15.5,10.1,15.5,10.1,15.5,10.1C15.5,10.1,15.5,10.1,15.5,10.1
		C15.5,10.1,15.5,10.1,15.5,10.1z M15.5,10.4C15.5,10.4,15.5,10.4,15.5,10.4C15.5,10.4,15.5,10.4,15.5,10.4
		C15.5,10.4,15.5,10.4,15.5,10.4C15.5,10.4,15.5,10.4,15.5,10.4z M15.7,10.1C15.7,10.1,15.7,10.1,15.7,10.1
		C15.7,10.1,15.7,10.1,15.7,10.1C15.7,10.1,15.7,10.1,15.7,10.1C15.7,10.1,15.7,10.1,15.7,10.1z M15.8,8.4
		C15.9,8.4,15.9,8.4,15.8,8.4c0.1,0,0.1,0,0.2,0C16,8.4,15.9,8.4,15.8,8.4z M15.7,10.3C15.7,10.3,15.7,10.3,15.7,10.3
		c0,0,0.1,0,0.1,0c0,0,0,0,0,0C15.8,10.3,15.8,10.3,15.7,10.3z M15.8,10.4C15.8,10.4,15.8,10.4,15.8,10.4
		C15.8,10.4,15.8,10.4,15.8,10.4z M15.8,10.1C15.8,10.1,15.8,10,15.8,10.1C15.9,10,16,10,16,10c0,0,0,0,0,0C16,10,15.9,10,15.8,10.1
		z M16.3,9.7C16.3,9.7,16.3,9.7,16.3,9.7C16.3,9.7,16.4,9.7,16.3,9.7C16.4,9.7,16.4,9.7,16.3,9.7C16.4,9.7,16.3,9.7,16.3,9.7z
		 M16.5,8.2C16.5,8.2,16.5,8.2,16.5,8.2c0.1,0,0.1,0,0.2-0.1c0,0,0,0,0,0C16.7,8.2,16.6,8.2,16.5,8.2z M17,10c0,0,0.1,0,0.1,0
		c0,0,0,0,0,0C17.1,10,17,10,17,10z M17.4,8.8C17.4,8.8,17.4,8.8,17.4,8.8C17.5,8.9,17.5,8.8,17.4,8.8c0.1,0.1,0,0.1,0,0.1
		c0,0-0.1,0-0.1,0c0,0,0,0,0,0c0-0.1-0.1,0-0.1,0C17.3,8.8,17.4,8.8,17.4,8.8z M17.2,9C17.2,9,17.2,9,17.2,9C17.2,9,17.2,9.1,17.2,9
		C17.1,9.1,17.1,9.1,17.2,9C17.1,9,17.2,9,17.2,9z M17,10C16.9,10,16.9,10,17,10C16.9,10,16.9,10,17,10C16.9,10,16.9,10,17,10z
		 M16.9,9.8c-0.1,0.1-0.1,0.1-0.2,0C16.8,9.9,16.8,9.9,16.9,9.8z M17.9,7.8C17.9,7.8,17.9,7.7,17.9,7.8C17.9,7.7,17.9,7.7,17.9,7.8
		C17.9,7.7,18,7.7,18,7.6c0,0,0.1-0.1,0.1-0.1c0,0,0,0.1,0,0.1c0,0,0.1-0.1,0.2,0c-0.1,0.1-0.1,0.1-0.2,0c0,0,0,0.1,0,0.1
		C18,7.7,18,7.8,17.9,7.8z M18.3,7.4C18.3,7.4,18.3,7.4,18.3,7.4C18.3,7.4,18.3,7.4,18.3,7.4z M18.1,7.8c0-0.1,0.1,0,0.1-0.1
		c0,0,0,0,0,0C18.2,7.8,18.1,7.8,18.1,7.8z M18.3,7.8c0,0-0.1,0-0.1,0C18.2,7.8,18.3,7.7,18.3,7.8C18.3,7.7,18.3,7.7,18.3,7.8z
		 M18.6,6.9c0,0,0.1,0,0.1,0c0.1,0.1,0.2,0,0.2,0c-0.1,0-0.1,0.1-0.2,0.1c0,0,0,0.1-0.1,0.1c-0.2,0-0.3,0-0.5,0.1c0,0,0-0.1,0-0.1h0
		C18.3,7.1,18.3,7,18.4,7c0,0,0-0.1,0.1-0.1c0.1,0,0.1,0,0.2-0.1c0,0-0.1,0-0.1,0c0,0,0.1,0,0.1,0c0.2,0,0.4,0,0.5,0
		c-0.1,0-0.1,0-0.2,0C18.9,6.8,18.8,6.8,18.6,6.9c0,0-0.1,0-0.1,0.1C18.5,7.1,18.6,7,18.6,6.9C18.6,7,18.6,7,18.6,6.9z M19.2,6.9
		C19.1,6.9,19.1,6.9,19.2,6.9C19.1,6.9,19.1,6.9,19.2,6.9C19.1,6.9,19.1,6.9,19.2,6.9C19.1,6.9,19.2,6.9,19.2,6.9
		C19.2,6.9,19.2,6.9,19.2,6.9z"/>
	<rect x="17.8" y="5.6" width="0" height="0"/>
	<path d="M20.6,7.2c-0.1,0-0.3,0.1-0.4,0.1c0,0,0,0,0,0c0.1,0,0.9-0.1,1-0.2c-0.1,0-0.1,0-0.2,0C20.8,7.2,20.7,7.2,20.6,7.2z"/>
	<polygon points="3.7,14 3.7,14 3.7,14 3.7,14 3.7,14 3.7,14 	"/>
	<path d="M3.3,14.3c-0.1,0-0.1,0-0.1,0c0,0.1-0.1,0.1-0.2,0.2c0,0,0,0,0,0c0,0,0,0,0,0c0,0,0.1-0.1,0.1-0.1c0,0,0.1,0,0.1-0.1
		c0.1,0,0.2-0.1,0.2-0.2c0.1,0,0.1-0.1,0.2-0.1c0,0,0.1,0,0.1-0.1c0,0,0,0,0,0C3.5,14.1,3.3,14.1,3.3,14.3z"/>
	<path d="M3.9,13.8c-0.1,0-0.2,0.1-0.3,0.2C3.7,14,3.7,13.9,3.9,13.8C3.8,14,3.7,14,3.7,14c0.1,0,0.1,0,0.2,0C3.9,14,4,13.9,4,13.9
		c0,0,0.1-0.1,0.1-0.1C4,13.8,4,13.8,3.9,13.8C3.9,13.9,3.9,13.9,3.9,13.8z"/>
	<polygon points="4.1,13.8 4.1,13.8 4.1,13.8 4.1,13.8 4.1,13.8 	"/>
	<path d="M16.3,4c-0.1,0.1-0.1,0.1-0.2,0.2c0,0,0,0.1,0,0.1c0,0,0.1,0,0.1,0c0,0,0,0,0,0c0,0,0.1,0,0.2,0C16.4,4.1,16.4,4.1,16.3,4z
		"/>
	<path d="M19.1,8C19,8,18.8,8,18.7,8c0,0-0.1,0,0,0.1c0.2,0,0.5-0.1,0.7-0.1c0,0,0,0,0,0C19.3,8,19.2,8,19.1,8z"/>
	<rect x="2.8" y="14.5" width="0" height="0"/>
	<path d="M2.6,14.6c-0.1,0-0.1,0.1-0.2,0.1c-0.1,0-0.1,0.1-0.2,0.1c0,0,0,0,0,0c0.2-0.1,0.3-0.2,0.5-0.3c0,0,0,0,0-0.1c0,0,0,0,0,0
		C2.7,14.6,2.7,14.6,2.6,14.6z"/>
	<path d="M0.1,10.3c0.1,0,0.2,0,0.4,0.1c0,0,0-0.1,0-0.1c0-0.1-0.1-0.1-0.2-0.1C0.2,10.2,0.2,10.2,0.1,10.3
		C0.1,10.2,0.1,10.2,0.1,10.3z"/>
	<path d="M17.5,3.5c0.1,0,0.2-0.1,0.3-0.1c0,0,0,0,0,0c0,0-0.1,0-0.1,0c-0.1,0-0.2,0.1-0.3,0.1c-0.1,0-0.1,0-0.2,0c0,0-0.1,0,0,0.1
		C17.2,3.5,17.3,3.5,17.5,3.5C17.4,3.5,17.4,3.5,17.5,3.5z"/>
	<path d="M17.5,3.3c0.1,0,0.2,0,0.3,0c0,0,0.1-0.1,0.1-0.1C17.9,3.2,17.6,3.3,17.5,3.3z"/>
	<path d="M18.3,4.9c0.2,0,0.3-0.1,0.4-0.2C18.5,4.7,18.4,4.8,18.3,4.9z"/>
	<path d="M17.2,3c0-0.1,0.1-0.1,0.2-0.1c0,0,0.1-0.1,0.1-0.1c0,0,0,0,0,0C17.4,2.8,17.3,2.9,17.2,3C17.2,3,17.2,3,17.2,3z"/>
	<path d="M17.9,5c0,0.1-0.1,0.1-0.1,0.2c0,0,0,0,0,0c0.1,0,0.2,0,0.2-0.1C18,5,18,5,17.9,5C17.9,5,17.9,5,17.9,5
		C17.9,5,17.9,5,17.9,5z"/>
	<path d="M16.7,3.9c0,0-0.1,0.1-0.2,0.1c0,0-0.1,0-0.1,0.1C16.6,4.1,16.6,4.1,16.7,3.9z"/>
	<path d="M1.3,9.6c-0.1,0-0.1,0.1-0.1,0.1c-0.1,0-0.1,0-0.2,0.1C1.1,9.8,1.2,9.7,1.3,9.6z"/>
	<path d="M18.2,5.7c0,0,0-0.1,0-0.1c-0.1,0-0.1,0-0.2,0.1C18.1,5.6,18.2,5.7,18.2,5.7z"/>
	<rect x="3.1" y="9.2" width="0" height="0"/>
	<path d="M18.6,8.1c0,0-0.1,0-0.1,0.1c0,0,0,0,0-0.1c0,0.1,0,0.1,0,0.1C18.5,8.2,18.6,8.1,18.6,8.1C18.6,8.1,18.7,8.1,18.6,8.1z"/>
	<polygon points="20.7,7 20.7,7 20.7,6.9 	"/>
	<path d="M20.4,7.1c0.1,0,0.2,0,0.3-0.1c0,0-0.1,0-0.1,0C20.5,7,20.5,7,20.4,7.1z"/>
	<path d="M16.6,4.1c0.1,0,0.2-0.1,0.2-0.1C16.7,4,16.7,4.1,16.6,4.1z"/>
	<path d="M21.2,7.2c0.1,0,0.2,0,0.3-0.1C21.3,7.1,21.3,7.1,21.2,7.2z"/>
	<path d="M20.8,6.8C20.9,6.9,20.9,6.9,20.8,6.8C20.9,6.8,20.9,6.8,20.8,6.8C20.8,6.8,20.8,6.8,20.8,6.8C20.8,6.8,20.8,6.8,20.8,6.8z
		"/>
	<path d="M17.8,5.9c0,0,0.1,0,0.1-0.1c0,0,0,0,0,0c0,0-0.1,0-0.1,0C17.8,5.8,17.8,5.9,17.8,5.9z"/>
	<path d="M21.7,7.1c0.1,0,0.1,0,0.2,0C21.8,7.1,21.7,7.1,21.7,7.1z"/>
	<path d="M1.1,11.5c-0.1,0-0.1,0-0.2,0.1C1,11.6,1,11.5,1.1,11.5C1.1,11.5,1.1,11.5,1.1,11.5z"/>
	<path d="M20.7,6.5c-0.1,0-0.1,0-0.2,0C20.6,6.6,20.6,6.6,20.7,6.5C20.7,6.6,20.7,6.6,20.7,6.5z"/>
	<path d="M17.1,3.6C17,3.6,17,3.6,17.1,3.6C17,3.7,17,3.7,17.1,3.6C17.1,3.6,17.1,3.6,17.1,3.6z"/>
	<path d="M17.3,2.8c0,0-0.1,0-0.1,0.1c0.2-0.1,0.2-0.1,0.2-0.1C17.3,2.8,17.3,2.8,17.3,2.8z"/>
	<path d="M18.1,3.4c0,0-0.1,0.1-0.1,0.1C18.1,3.4,18.1,3.4,18.1,3.4z"/>
	<path d="M19.7,7.4C19.7,7.4,19.7,7.4,19.7,7.4c0.1,0,0.1,0,0.2-0.1c0,0,0,0,0,0C19.9,7.4,19.8,7.4,19.7,7.4z"/>
	<path d="M0.3,10C0.3,10.1,0.2,10.1,0.3,10C0.3,10.1,0.3,10.1,0.3,10z"/>
	<path d="M18.8,4.7c0,0,0.1,0,0.1-0.1C18.9,4.6,18.9,4.6,18.8,4.7C18.8,4.7,18.8,4.7,18.8,4.7z"/>
	<path d="M17.4,5.9C17.5,5.9,17.5,5.9,17.4,5.9C17.5,5.9,17.5,5.9,17.4,5.9C17.5,5.9,17.5,5.9,17.4,5.9z"/>
	<path d="M16.9,3.6c-0.1,0-0.1,0,0,0.1C16.8,3.7,16.9,3.7,16.9,3.6z"/>
	<path d="M19.2,4.7C19.3,4.7,19.3,4.7,19.2,4.7C19.3,4.6,19.3,4.6,19.2,4.7C19.3,4.7,19.3,4.7,19.2,4.7C19.2,4.7,19.2,4.7,19.2,4.7z
		"/>
	<path d="M16.9,3.8C16.9,3.8,17,3.7,16.9,3.8C16.9,3.7,16.9,3.7,16.9,3.8z"/>
	<polygon points="17,3.7 17,3.7 17,3.7 17,3.7 17,3.7 17,3.7 	"/>
	<path d="M16.7,4.2C16.7,4.2,16.6,4.2,16.7,4.2C16.7,4.3,16.7,4.2,16.7,4.2z"/>
	<path d="M1.6,13.1C1.6,13.2,1.6,13.2,1.6,13.1C1.7,13.2,1.7,13.2,1.6,13.1C1.7,13.2,1.7,13.2,1.6,13.1C1.7,13.1,1.7,13.1,1.6,13.1z
		"/>
	<path d="M4,13.7c-0.1,0-0.1,0.1-0.1,0.1C3.9,13.8,4,13.8,4,13.7z"/>
	<polygon points="3.9,13.8 3.9,13.8 3.9,13.8 3.9,13.8 3.9,13.8 3.9,13.8 	"/>
	<path d="M19.6,6.3C19.7,6.3,19.7,6.2,19.6,6.3C19.7,6.2,19.7,6.2,19.6,6.3C19.7,6.2,19.6,6.2,19.6,6.3C19.6,6.3,19.6,6.3,19.6,6.3z
		"/>
	<path d="M20.2,6.1C20.2,6.1,20.2,6.1,20.2,6.1C20.2,6.1,20.2,6.1,20.2,6.1C20.2,6.1,20.2,6.1,20.2,6.1C20.2,6.1,20.2,6.1,20.2,6.1
		C20.2,6.1,20.2,6.1,20.2,6.1z"/>
	<path d="M20.8,7C20.7,6.9,20.7,6.9,20.8,7C20.7,7,20.7,7,20.8,7z"/>
	<polygon points="20.7,7 20.7,7 20.7,6.9 	"/>
	<path d="M19.5,8C19.5,8,19.5,8,19.5,8C19.5,8,19.5,8,19.5,8C19.6,8,19.6,8,19.5,8C19.5,8,19.5,8,19.5,8z"/>
	<path d="M1.7,9.3C1.7,9.3,1.7,9.3,1.7,9.3C1.7,9.4,1.7,9.4,1.7,9.3z"/>
	<path d="M17.7,3.6C17.7,3.6,17.7,3.6,17.7,3.6C17.7,3.6,17.7,3.6,17.7,3.6C17.6,3.6,17.7,3.6,17.7,3.6C17.7,3.6,17.7,3.6,17.7,3.6z
		"/>
	<path d="M1.8,9.5C1.8,9.5,1.8,9.5,1.8,9.5C1.8,9.5,1.7,9.5,1.8,9.5C1.7,9.5,1.7,9.5,1.8,9.5C1.7,9.6,1.7,9.6,1.8,9.5
		C1.7,9.5,1.8,9.5,1.8,9.5z"/>
	<path d="M16.8,3.9C16.8,3.9,16.8,3.9,16.8,3.9C16.8,3.9,16.8,3.9,16.8,3.9C16.8,3.9,16.8,3.9,16.8,3.9C16.8,3.9,16.8,3.9,16.8,3.9z
		"/>
	<path d="M17.2,4C17.2,4,17.2,4,17.2,4C17.2,4,17.2,4,17.2,4C17.3,4,17.3,4,17.2,4C17.2,4,17.2,4,17.2,4C17.2,4,17.2,4,17.2,4z"/>
	<path d="M3.6,13.5C3.6,13.5,3.6,13.5,3.6,13.5C3.5,13.6,3.5,13.6,3.6,13.5C3.6,13.6,3.6,13.6,3.6,13.5C3.6,13.6,3.6,13.6,3.6,13.5
		C3.6,13.6,3.6,13.5,3.6,13.5z"/>
	<path d="M17.9,3.5C17.9,3.5,17.9,3.5,17.9,3.5C17.9,3.5,17.9,3.5,17.9,3.5C17.9,3.5,17.9,3.5,17.9,3.5C17.9,3.5,17.9,3.5,17.9,3.5z
		"/>
	<path d="M0.8,9.9C0.8,9.9,0.8,9.9,0.8,9.9C0.8,9.9,0.8,9.9,0.8,9.9C0.8,9.9,0.8,9.9,0.8,9.9C0.8,9.9,0.8,9.9,0.8,9.9z"/>
	<path d="M17,6C17,6.1,17,6.1,17,6C17,6.1,17,6.1,17,6C17,6,17,6,17,6C17,6,17,6,17,6z"/>
	<path d="M19.2,5.5C19.2,5.5,19.2,5.5,19.2,5.5C19.2,5.5,19.2,5.5,19.2,5.5C19.2,5.5,19.1,5.5,19.2,5.5C19.1,5.5,19.2,5.5,19.2,5.5z
		"/>
	<path d="M2.9,14.5C2.9,14.5,2.8,14.5,2.9,14.5C2.8,14.5,2.8,14.5,2.9,14.5C2.8,14.5,2.8,14.5,2.9,14.5C2.9,14.5,2.9,14.5,2.9,14.5
		C2.9,14.5,2.9,14.5,2.9,14.5z"/>
	<path d="M0.5,13C0.5,13,0.5,13,0.5,13C0.5,13,0.5,13,0.5,13C0.5,13,0.5,13,0.5,13z"/>
	<polygon points="0.5,13 0.5,13 0.5,13 0.5,13 0.5,13 	"/>
	<path d="M17.4,4.4C17.4,4.4,17.4,4.3,17.4,4.4C17.4,4.3,17.4,4.3,17.4,4.4C17.4,4.3,17.4,4.3,17.4,4.4C17.4,4.4,17.4,4.4,17.4,4.4z
		"/>
	<path d="M0.7,10.1C0.7,10.1,0.7,10.1,0.7,10.1C0.7,10.1,0.7,10.1,0.7,10.1C0.7,10.1,0.7,10.1,0.7,10.1C0.7,10.1,0.7,10.1,0.7,10.1z
		"/>
	<path d="M1.1,13.3C1.1,13.3,1.1,13.3,1.1,13.3C1.1,13.3,1.1,13.3,1.1,13.3C1.1,13.3,1.1,13.3,1.1,13.3C1.1,13.3,1.1,13.3,1.1,13.3z
		"/>
	<path d="M21.5,7.1C21.5,7.1,21.5,7.1,21.5,7.1C21.5,7.1,21.5,7.1,21.5,7.1C21.5,7.1,21.5,7.1,21.5,7.1C21.5,7.1,21.5,7.1,21.5,7.1
		c0,0,0.1,0,0.1,0v0c0,0,0,0,0,0c0,0,0,0,0,0C21.6,7.1,21.6,7.1,21.5,7.1z"/>
	<path d="M17.7,5.8C17.7,5.7,17.7,5.7,17.7,5.8C17.7,5.7,17.7,5.7,17.7,5.8C17.7,5.7,17.7,5.7,17.7,5.8C17.7,5.7,17.7,5.7,17.7,5.8z
		"/>
	<path d="M18.3,7.1c0,0,0.1,0,0.1,0C18.4,7,18.3,7.1,18.3,7.1z"/>
	<path d="M11.9,11.9C11.9,11.9,11.9,11.9,11.9,11.9c-0.1,0-0.2,0.1-0.3,0.1c0,0-0.1,0-0.1,0c0,0-0.1,0-0.1,0c0,0-0.1,0-0.1,0.1
		c0,0,0,0-0.1,0c0,0-0.1,0-0.1,0c-0.1,0.1-0.2,0.1-0.3,0.1c0,0-0.1,0-0.1,0.1c0,0,0,0,0,0c0.1,0,0.1,0,0.2-0.1
		c0.1,0,0.2-0.1,0.3-0.1c0,0,0.1,0,0.1,0c0,0,0.1-0.1,0.1-0.1c0.1,0,0.2-0.1,0.2-0.1c0,0,0,0,0,0c0,0-0.1,0-0.1,0.1
		c0,0-0.1,0.1-0.1,0c0,0,0,0.1-0.1,0.1c0.1-0.1,1-0.4,1.1-0.4c-0.2,0.1-0.4,0.2-0.7,0.2C11.9,12,11.9,12,11.9,11.9z M11.7,12.1
		C11.7,12.1,11.7,12.1,11.7,12.1C11.8,12,11.8,12,11.7,12.1C11.8,12,11.8,12.1,11.7,12.1C11.8,12.1,11.8,12.1,11.7,12.1z"/>
	<path d="M16.5,10.8c-0.1,0-0.1,0-0.2,0c-0.1,0-0.2,0.1-0.3,0.1c-0.1,0-0.2,0.1-0.3,0.1c0,0,0,0,0,0c0,0,0,0,0,0
		c0.4-0.1,0.8-0.2,1.2-0.3c0,0,0,0,0,0C16.7,10.7,16.6,10.8,16.5,10.8z"/>
	<path d="M9.4,13.2c0,0-0.1,0-0.1,0.1c0,0,0,0,0,0c0,0,0,0,0,0c0.1,0,1-0.5,1.1-0.5c0,0,0,0,0,0c0,0,0,0,0,0
		C10.1,12.9,9.7,13.1,9.4,13.2z"/>
	<path d="M12.9,11.7c0.2-0.1,0.3-0.1,0.5-0.2c0.2-0.1,0.3-0.1,0.5-0.2C13.8,11.4,13,11.6,12.9,11.7C12.9,11.7,12.9,11.7,12.9,11.7z"
		/>
	<path d="M15.5,11c-0.1,0-0.3,0-0.4,0.1c0,0-0.1,0-0.1,0c-0.1,0-0.1,0-0.1,0c0,0,0,0,0,0c0,0-0.1,0-0.1,0.1
		C14.7,11.2,15.5,11,15.5,11C15.5,11,15.5,11,15.5,11z"/>
	<path d="M16.2,10.7c0.2,0,0.4-0.1,0.6-0.1c0,0,0,0,0,0c0,0,0,0,0,0c-0.2,0-0.3,0-0.4,0.1C16.3,10.7,16.2,10.7,16.2,10.7z"/>
	<path d="M14.7,11.1C14.7,11.1,14.7,11.1,14.7,11.1C14.7,11.1,14.7,11.1,14.7,11.1c-0.1,0-0.1,0-0.2,0c-0.1,0-0.3,0.1-0.4,0.1
		c0,0,0,0-0.1,0C14.2,11.3,14.7,11.1,14.7,11.1z"/>
	<path d="M13.6,11.2c-0.2,0.1-0.3,0.1-0.5,0.2C13.2,11.4,13.5,11.3,13.6,11.2z"/>
	<path d="M10.8,12.6C10.8,12.6,10.8,12.6,10.8,12.6c0.2-0.1,0.4-0.2,0.6-0.3C11.2,12.3,10.8,12.5,10.8,12.6z"/>
	<polygon points="10.4,12.6 10.4,12.6 10.4,12.6 	"/>
	<path d="M10.1,12.8C10.1,12.8,10.1,12.8,10.1,12.8c0.1,0,0.1-0.1,0.2-0.1c0.1,0,0.1-0.1,0.2-0.1c0,0-0.1,0-0.1,0
		C10.3,12.7,10.2,12.7,10.1,12.8z"/>
	<path d="M14.7,10.8c-0.1,0-0.4,0.1-0.5,0.2C14.4,11,14.5,10.9,14.7,10.8z"/>
	<path d="M5.2,14.1C5.2,14.1,5.2,14.1,5.2,14.1c0.1,0,0.1,0,0.1,0c0.1,0,0.1,0,0.2-0.1C5.3,14,5.2,14.1,5.2,14.1z"/>
	<path d="M15.2,10.9c-0.1,0-0.3,0-0.4,0.1C14.9,11,15,11,15.2,10.9z"/>
	<path d="M15,10.7C15,10.7,15,10.7,15,10.7c-0.1,0-0.2,0.1-0.2,0.1c0,0,0,0,0,0C14.9,10.8,15,10.8,15,10.7C15,10.7,15,10.7,15,10.7z
		"/>
	<path d="M14.1,11.2c0.1,0,0.2,0,0.3-0.1C14.3,11.1,14.2,11.1,14.1,11.2z"/>
	<path d="M13.9,11.1c0.1,0,0.2,0,0.3-0.1C14.1,11,14,11.1,13.9,11.1z"/>
	<path d="M14.9,10.9C14.9,10.9,14.9,10.9,14.9,10.9c0,0,0.1,0,0.2,0c0,0,0,0,0,0c0,0-0.1,0-0.1,0C15,10.9,15,10.9,14.9,10.9z"/>
	<path d="M12.8,11.6c-0.1,0-0.1,0-0.2,0.1c0,0,0,0,0.1,0C12.6,11.7,12.7,11.7,12.8,11.6C12.7,11.7,12.8,11.7,12.8,11.6z"/>
	<path d="M12.6,11.8C12.6,11.8,12.6,11.8,12.6,11.8c0,0,0.1,0,0.1,0c0,0,0.1,0,0.1-0.1C12.8,11.7,12.8,11.7,12.6,11.8
		C12.7,11.7,12.7,11.8,12.6,11.8z"/>
	<polygon points="16.8,10.2 16.8,10.2 16.8,10.2 16.8,10.2 16.8,10.2 	"/>
	<path d="M17,10.2C17,10.2,17.1,10.2,17,10.2c0.1,0,0.1,0,0.1,0c0,0,0,0,0,0c-0.1,0-0.1,0-0.2,0c0,0-0.1,0-0.1,0c0,0,0,0,0,0
		C16.9,10.2,16.9,10.2,17,10.2z"/>
	<path d="M17.4,8.5c0.1,0,0.2,0,0.3-0.1c0,0,0,0,0,0C17.6,8.4,17.5,8.5,17.4,8.5z"/>
	<path d="M10.1,12.8C10.1,12.8,10.1,12.8,10.1,12.8c-0.1,0-0.1,0-0.2,0.1c0,0,0,0,0,0C9.9,12.9,10,12.9,10.1,12.8z"/>
	<path d="M12,11.9c0,0,0.1,0,0.2-0.1C12.1,11.8,12.1,11.9,12,11.9z"/>
	<path d="M13.4,11.4c0.1,0,0.1,0,0.1-0.1C13.5,11.3,13.5,11.4,13.4,11.4z"/>
	<path d="M14.5,11.3c0.1,0,0.1,0,0.2-0.1C14.6,11.2,14.5,11.3,14.5,11.3z"/>
	<path d="M15.2,10.6c0,0-0.1,0-0.1,0C15.1,10.7,15.1,10.7,15.2,10.6C15.2,10.7,15.2,10.7,15.2,10.6z"/>
	<polygon points="10.4,12.6 10.4,12.6 10.4,12.6 	"/>
	<path d="M10.4,12.6c0.1,0,0.1,0,0.1-0.1c0,0,0,0,0,0C10.5,12.6,10.5,12.6,10.4,12.6z"/>
	<path d="M13.3,11.4c0,0-0.1,0-0.2,0.1C13.2,11.6,13.2,11.5,13.3,11.4z"/>
	<path d="M13.7,11.2c0,0,0.1,0,0.1,0C13.8,11.1,13.7,11.1,13.7,11.2z"/>
	<path d="M14.3,11.4c0,0,0.1,0,0.1,0C14.3,11.3,14.3,11.3,14.3,11.4z"/>
	<path d="M15.7,10.8c0,0-0.1,0-0.1,0C15.6,10.8,15.7,10.8,15.7,10.8z"/>
	<path d="M14.5,11C14.6,11,14.6,11,14.5,11C14.6,11,14.6,11,14.5,11C14.6,11,14.6,11,14.5,11z"/>
	<path d="M15.4,10.9c0,0-0.1,0-0.1,0c0,0,0,0,0,0C15.3,10.9,15.3,10.9,15.4,10.9C15.4,10.9,15.4,10.9,15.4,10.9z"/>
	<path d="M16.8,10.5C16.7,10.5,16.7,10.5,16.8,10.5C16.7,10.5,16.7,10.5,16.8,10.5C16.7,10.5,16.7,10.5,16.8,10.5
		C16.8,10.5,16.8,10.5,16.8,10.5z"/>
	<path d="M14,11.2C14,11.2,14,11.2,14,11.2C14,11.2,14,11.2,14,11.2C14,11.2,14,11.2,14,11.2z"/>
	<path d="M8.3,13.7C8.3,13.8,8.3,13.8,8.3,13.7C8.4,13.8,8.4,13.7,8.3,13.7C8.4,13.7,8.4,13.7,8.3,13.7C8.4,13.7,8.4,13.7,8.3,13.7z
		"/>
	<path d="M14.7,11C14.7,11,14.7,11,14.7,11C14.7,10.9,14.7,11,14.7,11z"/>
	<path d="M10.6,12.5C10.6,12.5,10.7,12.5,10.6,12.5C10.7,12.5,10.7,12.5,10.6,12.5C10.7,12.5,10.7,12.5,10.6,12.5z"/>
	<path d="M17.7,9C17.7,9,17.7,9,17.7,9C17.7,9,17.7,9,17.7,9z"/>
	<path d="M14.2,11.4C14.2,11.4,14.2,11.4,14.2,11.4C14.2,11.4,14.2,11.4,14.2,11.4C14.2,11.3,14.2,11.4,14.2,11.4z"/>
	<path d="M18.2,8.5C18.2,8.5,18.2,8.5,18.2,8.5C18.2,8.5,18.2,8.5,18.2,8.5C18.2,8.5,18.2,8.5,18.2,8.5C18.2,8.5,18.2,8.5,18.2,8.5z
		"/>
	<path d="M14,11.3C14,11.3,13.9,11.3,14,11.3C14,11.3,14,11.3,14,11.3z"/>
	<path d="M17.5,9.9C17.5,9.9,17.5,9.9,17.5,9.9C17.5,9.9,17.5,9.9,17.5,9.9z"/>
	<path d="M12.4,11.7C12.4,11.7,12.4,11.8,12.4,11.7C12.4,11.8,12.4,11.8,12.4,11.7C12.4,11.8,12.4,11.8,12.4,11.7z"/>
	<path d="M10.6,12.6C10.7,12.6,10.7,12.6,10.6,12.6C10.7,12.6,10.7,12.6,10.6,12.6C10.7,12.6,10.7,12.6,10.6,12.6
		C10.7,12.6,10.7,12.6,10.6,12.6z"/>
	<path d="M17.5,9.6C17.5,9.6,17.5,9.6,17.5,9.6C17.5,9.6,17.5,9.6,17.5,9.6C17.5,9.6,17.5,9.6,17.5,9.6C17.5,9.6,17.5,9.6,17.5,9.6z
		"/>
	<path d="M13,11.5C13,11.5,13,11.5,13,11.5C13,11.5,13,11.5,13,11.5C13,11.6,13,11.6,13,11.5C13,11.6,13,11.6,13,11.5z"/>
	<path d="M13.6,11.5C13.6,11.5,13.6,11.6,13.6,11.5C13.7,11.5,13.7,11.5,13.6,11.5C13.7,11.5,13.6,11.5,13.6,11.5
		C13.6,11.5,13.6,11.5,13.6,11.5z"/>
	<path d="M17,10.5C17,10.5,17,10.5,17,10.5C17.1,10.5,17.1,10.5,17,10.5C17.1,10.5,17.1,10.5,17,10.5C17.1,10.5,17.1,10.5,17,10.5z"
		/>
	<path d="M16.9,10.3C16.9,10.3,16.9,10.3,16.9,10.3C16.9,10.3,16.9,10.3,16.9,10.3C16.9,10.3,16.9,10.3,16.9,10.3
		C16.9,10.3,16.9,10.3,16.9,10.3z"/>
	<path d="M6.9,14.3C6.9,14.3,6.9,14.3,6.9,14.3C6.9,14.3,7,14.3,6.9,14.3C7,14.3,7,14.3,6.9,14.3C7,14.3,6.9,14.3,6.9,14.3z"/>
	<path d="M6.6,14.4C6.6,14.4,6.6,14.4,6.6,14.4C6.6,14.4,6.6,14.4,6.6,14.4C6.6,14.4,6.6,14.4,6.6,14.4C6.6,14.4,6.6,14.4,6.6,14.4z
		"/>
	<path d="M10.5,12.4C10.5,12.4,10.5,12.4,10.5,12.4C10.5,12.4,10.5,12.4,10.5,12.4C10.5,12.4,10.5,12.4,10.5,12.4L10.5,12.4
		C10.5,12.4,10.5,12.4,10.5,12.4z"/>
	</clipPath>
</defs>
</g>
</svg>
