<?xml version="1.0" encoding="utf-8"?>
<!-- Generator: Adobe Illustrator 19.0.0, SVG Export Plug-In . SVG Version: 6.00 Build 0)  -->
<svg version="1.1" id="Layer_1" xmlns="http://www.w3.org/2000/svg" xmlns:xlink="http://www.w3.org/1999/xlink" x="0px" y="0px"
	 viewBox="-293.8 166.7 222.6 218.9" style="enable-background:new -293.8 166.7 222.6 218.9;" xml:space="preserve">
<g id="XMLID_15_">
	<path id="XMLID_16_" d="M-80.7,374.2c3.2,3.2,6.4,4.9,9.5,5.1v6.2c-14.9-0.6-33.6-0.9-56.3-0.9c-23.5,0-40.8,0.3-51.9,0.9v-6.2
		c7.7-0.3,13.3-1.3,16.7-2.9c3.4-1.6,5.1-4.4,5.1-8.4c0-3.1-1.3-8-3.8-14.6l-18.4-50.7h-62.4l-5.3,13.9c-6.6,17.3-10,30.7-10,40.3
		c0,8.4,2.3,14.2,7,17.4c4.7,3.1,11.6,4.8,20.9,5.1v6.2c-15.4-0.6-28.9-0.9-40.4-0.9c-9.8,0-17.7,0.3-23.8,0.9v-6.2
		c5-0.8,9.8-4,14.4-9.5s9.2-14.4,14-26.7l68.6-176.5c4.4,0.4,9.9,0.6,16.3,0.6c6.4,0,11.8-0.2,16.1-0.6l74.8,192.8
		C-86.9,366.1-83.9,371-80.7,374.2z M-210,219.2l-29.7,77.2h57.7L-210,219.2z"/>
</g>
</svg>
